<?xml version="1.0" encoding="UTF-8" standalone="no"?>
<svg
   xmlns:dc="http://purl.org/dc/elements/1.1/"
   xmlns:cc="http://creativecommons.org/ns#"
   xmlns:rdf="http://www.w3.org/1999/02/22-rdf-syntax-ns#"
   xmlns:svg="http://www.w3.org/2000/svg"
   xmlns="http://www.w3.org/2000/svg"
   viewBox="0 0 471.12674 219.88754"
   height="219.88754"
   width="471.12674"
   xml:space="preserve"
   version="1.1"
   id="svg2"><metadata
     id="metadata8"><rdf:RDF><cc:Work
         rdf:about=""><dc:format>image/svg+xml</dc:format><dc:type
           rdf:resource="http://purl.org/dc/dcmitype/StillImage" /><dc:title></dc:title></cc:Work></rdf:RDF></metadata><defs
     id="defs6"><clipPath
       id="clipPath20"
       clipPathUnits="userSpaceOnUse"><path
         id="path22"
         d="m 231.879,650.469 8.691,0 0,8.731 -8.691,0 0,-8.731 z" /></clipPath><clipPath
       id="clipPath134"
       clipPathUnits="userSpaceOnUse"><path
         id="path136"
         d="m 62.331,390.175 377.917,0 0,240.705 -377.917,0 0,-240.705 z" /></clipPath><clipPath
       id="clipPath162"
       clipPathUnits="userSpaceOnUse"><path
         id="path164"
         d="m 62.331,390.175 377.917,0 0,240.705 -377.917,0 0,-240.705 z" /></clipPath></defs><g
     transform="matrix(1.25,0,0,-1.25,-77.91375,728.94933)"
     id="g10"><text
       id="text126"
       style="font-variant:normal;font-weight:500;font-stretch:normal;font-size:9.21580029px;font-family:Delicious;-inkscape-font-specification:Delicious-Roman;writing-mode:lr-tb;fill:#110f0d;fill-opacity:1;fill-rule:nonzero;stroke:none"
       transform="matrix(1,0,0,-1,78.9367,576.7637)"><tspan
         id="tspan128"
         y="0"
         x="0 5.0410428 9.3816843 13.676248 16.496283 21.279282 24.044022 26.983862 31.278425 34.098461 38.439102 41.203842 45.959194 50.299835 53.239677 56.004417 60.151527 62.529202 66.676315 70.823425 74.970535 77.735275 81.605911 84.425941 89.208946 93.927437 98.268074 103.05108 105.87111">Death rate per 1,000 students</tspan></text>
<text
       id="text152"
       style="font-variant:normal;font-weight:500;font-stretch:normal;font-size:9.21580029px;font-family:Delicious;-inkscape-font-specification:Delicious-Roman;writing-mode:lr-tb;fill:#110f0d;fill-opacity:1;fill-rule:nonzero;stroke:none"
       transform="matrix(1,0,0,-1,65.52,420.9626)"><tspan
         id="tspan154"
         y="0"
         x="0">0</tspan><tspan
         id="tspan156"
         y="-24.59697"
         x="0">5</tspan></text>
<g
       id="g158"><g
         clip-path="url(#clipPath162)"
         id="g160"><text
           id="text166"
           style="font-variant:normal;font-weight:500;font-stretch:normal;font-size:9.21580029px;font-family:Delicious;-inkscape-font-specification:Delicious-Roman;writing-mode:lr-tb;fill:#110f0d;fill-opacity:1;fill-rule:nonzero;stroke:none"
           transform="matrix(1,0,0,-1,61.3729,470.1567)"><tspan
             id="tspan168"
             y="0"
             x="0 4.14711">10</tspan><tspan
             id="tspan170"
             y="-24.59697"
             x="0 4.14711">15</tspan><tspan
             id="tspan172"
             y="-49.193939"
             x="0 4.14711">20</tspan><tspan
             id="tspan174"
             y="-73.790909"
             x="0 4.14711">25</tspan><tspan
             id="tspan176"
             y="-98.387878"
             x="0 4.14711">30</tspan></text>
</g></g><text
       id="text178"
       style="font-variant:normal;font-weight:500;font-stretch:normal;font-size:9.21580029px;font-family:Delicious;-inkscape-font-specification:Delicious-Roman;writing-mode:lr-tb;fill:#110f0d;fill-opacity:1;fill-rule:nonzero;stroke:none"
       transform="matrix(1,0,0,-1,71.8328,408.8069)"><tspan
         id="tspan180"
         y="0"
         x="0 4.14711 8.29422 12.44133 56.492855 60.639965 64.787071 68.934181 112.98571 117.13282 121.27993 125.42704 169.47856 173.62567 177.77278 181.91989 225.97142 230.11853 234.26564 238.41275 282.46426 286.61139 290.75848 294.90561 338.95712 343.10425 347.25134 351.39847">1869188418991914192919441959</tspan></text>
<g
       transform="translate(368.5901,423.0173)"
       id="g182"><path
         id="path184"
         style="fill:none;stroke:#918f90;stroke-width:0.51200002;stroke-linecap:round;stroke-linejoin:round;stroke-miterlimit:1.5;stroke-dasharray:none;stroke-opacity:1"
         d="M 0,0 0,147.944" /></g><g
       transform="translate(379.6606,423.0173)"
       id="g186"><path
         id="path188"
         style="fill:none;stroke:#918f90;stroke-width:0.51200002;stroke-linecap:round;stroke-linejoin:round;stroke-miterlimit:1.5;stroke-dasharray:none;stroke-opacity:1"
         d="M 0,0 0,147.944" /></g><g
       transform="translate(390.7309,423.0173)"
       id="g190"><path
         id="path192"
         style="fill:none;stroke:#918f90;stroke-width:0.51200002;stroke-linecap:round;stroke-linejoin:round;stroke-miterlimit:1.5;stroke-dasharray:none;stroke-opacity:1"
         d="M 0,0 0,147.944" /></g><g
       transform="translate(401.8062,423.0173)"
       id="g194"><path
         id="path196"
         style="fill:none;stroke:#918f90;stroke-width:0.51200002;stroke-linecap:round;stroke-linejoin:round;stroke-miterlimit:1.5;stroke-dasharray:none;stroke-opacity:1"
         d="M 0,0 0,147.944" /></g><g
       transform="translate(412.8767,423.0173)"
       id="g198"><path
         id="path200"
         style="fill:none;stroke:#918f90;stroke-width:0.51200002;stroke-linecap:round;stroke-linejoin:round;stroke-miterlimit:1.5;stroke-dasharray:none;stroke-opacity:1"
         d="M 0,0 0,147.944" /></g><g
       transform="translate(423.9471,423.0173)"
       id="g202"><path
         id="path204"
         style="fill:none;stroke:#918f90;stroke-width:0.51200002;stroke-linecap:round;stroke-linejoin:round;stroke-miterlimit:1.5;stroke-dasharray:none;stroke-opacity:1"
         d="M 0,0 0,147.944" /></g><g
       transform="translate(435.0175,423.0173)"
       id="g206"><path
         id="path208"
         style="fill:none;stroke:#918f90;stroke-width:0.51200002;stroke-linecap:round;stroke-linejoin:round;stroke-miterlimit:1.5;stroke-dasharray:none;stroke-opacity:1"
         d="M 0,0 0,147.944" /></g><g
       transform="translate(80.7301,472.332)"
       id="g210"><path
         id="path212"
         style="fill:none;stroke:#918f90;stroke-width:0.51200002;stroke-linecap:round;stroke-linejoin:round;stroke-miterlimit:1.5;stroke-dasharray:none;stroke-opacity:1"
         d="M 0,0 357.983,0" /></g><g
       transform="translate(80.7301,496.9892)"
       id="g214"><path
         id="path216"
         style="fill:none;stroke:#918f90;stroke-width:0.51200002;stroke-linecap:round;stroke-linejoin:round;stroke-miterlimit:1.5;stroke-dasharray:none;stroke-opacity:1"
         d="M 0,0 357.983,0" /></g><g
       transform="translate(80.7301,521.6465)"
       id="g218"><path
         id="path220"
         style="fill:none;stroke:#918f90;stroke-width:0.51200002;stroke-linecap:round;stroke-linejoin:round;stroke-miterlimit:1.5;stroke-dasharray:none;stroke-opacity:1"
         d="M 0,0 357.983,0" /></g><g
       transform="translate(80.7301,546.3038)"
       id="g222"><path
         id="path224"
         style="fill:none;stroke:#918f90;stroke-width:0.51200002;stroke-linecap:round;stroke-linejoin:round;stroke-miterlimit:1.5;stroke-dasharray:none;stroke-opacity:1"
         d="M 0,0 357.983,0" /></g><g
       transform="translate(91.8004,423.0173)"
       id="g226"><path
         id="path228"
         style="fill:none;stroke:#918f90;stroke-width:0.51200002;stroke-linecap:round;stroke-linejoin:round;stroke-miterlimit:1.5;stroke-dasharray:none;stroke-opacity:1"
         d="M 0,0 0,147.944" /></g><g
       transform="translate(102.8709,423.0173)"
       id="g230"><path
         id="path232"
         style="fill:none;stroke:#918f90;stroke-width:0.51200002;stroke-linecap:round;stroke-linejoin:round;stroke-miterlimit:1.5;stroke-dasharray:none;stroke-opacity:1"
         d="M 0,0 0,147.944" /></g><g
       transform="translate(113.9413,423.0173)"
       id="g234"><path
         id="path236"
         style="fill:none;stroke:#918f90;stroke-width:0.51200002;stroke-linecap:round;stroke-linejoin:round;stroke-miterlimit:1.5;stroke-dasharray:none;stroke-opacity:1"
         d="M 0,0 0,147.944" /></g><g
       transform="translate(125.0117,423.0173)"
       id="g238"><path
         id="path240"
         style="fill:none;stroke:#918f90;stroke-width:0.51200002;stroke-linecap:round;stroke-linejoin:round;stroke-miterlimit:1.5;stroke-dasharray:none;stroke-opacity:1"
         d="M 0,0 0,147.944" /></g><g
       transform="translate(136.087,423.0173)"
       id="g242"><path
         id="path244"
         style="fill:none;stroke:#918f90;stroke-width:0.51200002;stroke-linecap:round;stroke-linejoin:round;stroke-miterlimit:1.5;stroke-dasharray:none;stroke-opacity:1"
         d="M 0,0 0,147.944" /></g><g
       transform="translate(147.1575,423.0173)"
       id="g246"><path
         id="path248"
         style="fill:none;stroke:#918f90;stroke-width:0.51200002;stroke-linecap:round;stroke-linejoin:round;stroke-miterlimit:1.5;stroke-dasharray:none;stroke-opacity:1"
         d="M 0,0 0,147.944" /></g><g
       transform="translate(158.2278,423.0173)"
       id="g250"><path
         id="path252"
         style="fill:none;stroke:#918f90;stroke-width:0.51200002;stroke-linecap:round;stroke-linejoin:round;stroke-miterlimit:1.5;stroke-dasharray:none;stroke-opacity:1"
         d="M 0,0 0,147.944" /></g><g
       transform="translate(169.2983,423.0173)"
       id="g254"><path
         id="path256"
         style="fill:none;stroke:#918f90;stroke-width:0.51200002;stroke-linecap:round;stroke-linejoin:round;stroke-miterlimit:1.5;stroke-dasharray:none;stroke-opacity:1"
         d="M 0,0 0,147.944" /></g><g
       transform="translate(180.3735,423.0173)"
       id="g258"><path
         id="path260"
         style="fill:none;stroke:#918f90;stroke-width:0.51200002;stroke-linecap:round;stroke-linejoin:round;stroke-miterlimit:1.5;stroke-dasharray:none;stroke-opacity:1"
         d="M 0,0 0,147.944" /></g><g
       transform="translate(191.444,423.0173)"
       id="g262"><path
         id="path264"
         style="fill:none;stroke:#918f90;stroke-width:0.51200002;stroke-linecap:round;stroke-linejoin:round;stroke-miterlimit:1.5;stroke-dasharray:none;stroke-opacity:1"
         d="M 0,0 0,147.944" /></g><g
       transform="translate(202.5144,423.0173)"
       id="g266"><path
         id="path268"
         style="fill:none;stroke:#918f90;stroke-width:0.51200002;stroke-linecap:round;stroke-linejoin:round;stroke-miterlimit:1.5;stroke-dasharray:none;stroke-opacity:1"
         d="M 0,0 0,147.944" /></g><g
       transform="translate(213.5848,423.0173)"
       id="g270"><path
         id="path272"
         style="fill:none;stroke:#918f90;stroke-width:0.51200002;stroke-linecap:round;stroke-linejoin:round;stroke-miterlimit:1.5;stroke-dasharray:none;stroke-opacity:1"
         d="M 0,0 0,147.944" /></g><g
       transform="translate(224.66,423.0173)"
       id="g274"><path
         id="path276"
         style="fill:none;stroke:#918f90;stroke-width:0.51200002;stroke-linecap:round;stroke-linejoin:round;stroke-miterlimit:1.5;stroke-dasharray:none;stroke-opacity:1"
         d="M 0,0 0,147.944" /></g><g
       transform="translate(235.7305,423.0173)"
       id="g278"><path
         id="path280"
         style="fill:none;stroke:#918f90;stroke-width:0.51200002;stroke-linecap:round;stroke-linejoin:round;stroke-miterlimit:1.5;stroke-dasharray:none;stroke-opacity:1"
         d="M 0,0 0,147.944" /></g><g
       transform="translate(246.8009,423.0173)"
       id="g282"><path
         id="path284"
         style="fill:none;stroke:#918f90;stroke-width:0.51200002;stroke-linecap:round;stroke-linejoin:round;stroke-miterlimit:1.5;stroke-dasharray:none;stroke-opacity:1"
         d="M 0,0 0,147.944" /></g><g
       transform="translate(257.8714,423.0173)"
       id="g286"><path
         id="path288"
         style="fill:none;stroke:#918f90;stroke-width:0.51200002;stroke-linecap:round;stroke-linejoin:round;stroke-miterlimit:1.5;stroke-dasharray:none;stroke-opacity:1"
         d="M 0,0 0,147.944" /></g><g
       transform="translate(268.9466,423.0173)"
       id="g290"><path
         id="path292"
         style="fill:none;stroke:#918f90;stroke-width:0.51200002;stroke-linecap:round;stroke-linejoin:round;stroke-miterlimit:1.5;stroke-dasharray:none;stroke-opacity:1"
         d="M 0,0 0,147.944" /></g><g
       transform="translate(280.017,423.0173)"
       id="g294"><path
         id="path296"
         style="fill:none;stroke:#918f90;stroke-width:0.51200002;stroke-linecap:round;stroke-linejoin:round;stroke-miterlimit:1.5;stroke-dasharray:none;stroke-opacity:1"
         d="M 0,0 0,147.944" /></g><g
       transform="translate(291.0874,423.0173)"
       id="g298"><path
         id="path300"
         style="fill:none;stroke:#918f90;stroke-width:0.51200002;stroke-linecap:round;stroke-linejoin:round;stroke-miterlimit:1.5;stroke-dasharray:none;stroke-opacity:1"
         d="M 0,0 0,147.944" /></g><g
       transform="translate(302.1578,423.0173)"
       id="g302"><path
         id="path304"
         style="fill:none;stroke:#918f90;stroke-width:0.51200002;stroke-linecap:round;stroke-linejoin:round;stroke-miterlimit:1.5;stroke-dasharray:none;stroke-opacity:1"
         d="M 0,0 0,147.944" /></g><g
       transform="translate(313.2331,423.0173)"
       id="g306"><path
         id="path308"
         style="fill:none;stroke:#918f90;stroke-width:0.51200002;stroke-linecap:round;stroke-linejoin:round;stroke-miterlimit:1.5;stroke-dasharray:none;stroke-opacity:1"
         d="M 0,0 0,147.944" /></g><g
       transform="translate(324.3036,423.0173)"
       id="g310"><path
         id="path312"
         style="fill:none;stroke:#918f90;stroke-width:0.51200002;stroke-linecap:round;stroke-linejoin:round;stroke-miterlimit:1.5;stroke-dasharray:none;stroke-opacity:1"
         d="M 0,0 0,147.944" /></g><g
       transform="translate(335.3739,423.0173)"
       id="g314"><path
         id="path316"
         style="fill:none;stroke:#918f90;stroke-width:0.51200002;stroke-linecap:round;stroke-linejoin:round;stroke-miterlimit:1.5;stroke-dasharray:none;stroke-opacity:1"
         d="M 0,0 0,147.944" /></g><g
       transform="translate(346.4444,423.0173)"
       id="g318"><path
         id="path320"
         style="fill:none;stroke:#918f90;stroke-width:0.51200002;stroke-linecap:round;stroke-linejoin:round;stroke-miterlimit:1.5;stroke-dasharray:none;stroke-opacity:1"
         d="M 0,0 0,147.944" /></g><g
       transform="translate(357.5197,423.0173)"
       id="g322"><path
         id="path324"
         style="fill:none;stroke:#918f90;stroke-width:0.51200002;stroke-linecap:round;stroke-linejoin:round;stroke-miterlimit:1.5;stroke-dasharray:none;stroke-opacity:1"
         d="M 0,0 0,147.944" /></g><g
       transform="translate(77.0011,570.9611)"
       id="g326"><path
         id="path328"
         style="fill:none;stroke:#918f90;stroke-width:0.51200002;stroke-linecap:round;stroke-linejoin:round;stroke-miterlimit:1.5;stroke-dasharray:none;stroke-opacity:1"
         d="M 0,0 3.729,0" /></g><g
       transform="translate(73.2721,570.9611)"
       id="g330"><path
         id="path332"
         style="fill:none;stroke:#918f90;stroke-width:0.51200002;stroke-linecap:round;stroke-linejoin:round;stroke-miterlimit:1.5;stroke-dasharray:none;stroke-opacity:1"
         d="M 0,0 7.458,0" /></g><g
       transform="translate(91.8004,418.9078)"
       id="g334"><path
         id="path336"
         style="fill:none;stroke:#918f90;stroke-width:0.51200002;stroke-linecap:round;stroke-linejoin:round;stroke-miterlimit:1.5;stroke-dasharray:none;stroke-opacity:1"
         d="M 0,0 0,4.109" /></g><g
       transform="translate(102.8709,418.9078)"
       id="g338"><path
         id="path340"
         style="fill:none;stroke:#918f90;stroke-width:0.51200002;stroke-linecap:round;stroke-linejoin:round;stroke-miterlimit:1.5;stroke-dasharray:none;stroke-opacity:1"
         d="M 0,0 0,4.109" /></g><g
       transform="translate(113.9413,418.9078)"
       id="g342"><path
         id="path344"
         style="fill:none;stroke:#918f90;stroke-width:0.51200002;stroke-linecap:round;stroke-linejoin:round;stroke-miterlimit:1.5;stroke-dasharray:none;stroke-opacity:1"
         d="M 0,0 0,4.109" /></g><g
       transform="translate(125.0117,418.9078)"
       id="g346"><path
         id="path348"
         style="fill:none;stroke:#918f90;stroke-width:0.51200002;stroke-linecap:round;stroke-linejoin:round;stroke-miterlimit:1.5;stroke-dasharray:none;stroke-opacity:1"
         d="M 0,0 0,4.109" /></g><g
       transform="translate(136.087,418.9078)"
       id="g350"><path
         id="path352"
         style="fill:none;stroke:#918f90;stroke-width:0.51200002;stroke-linecap:round;stroke-linejoin:round;stroke-miterlimit:1.5;stroke-dasharray:none;stroke-opacity:1"
         d="M 0,0 0,4.109" /></g><g
       transform="translate(147.1575,418.9078)"
       id="g354"><path
         id="path356"
         style="fill:none;stroke:#918f90;stroke-width:0.51200002;stroke-linecap:round;stroke-linejoin:round;stroke-miterlimit:1.5;stroke-dasharray:none;stroke-opacity:1"
         d="M 0,0 0,4.109" /></g><g
       transform="translate(158.2278,418.9078)"
       id="g358"><path
         id="path360"
         style="fill:none;stroke:#918f90;stroke-width:0.51200002;stroke-linecap:round;stroke-linejoin:round;stroke-miterlimit:1.5;stroke-dasharray:none;stroke-opacity:1"
         d="M 0,0 0,4.109" /></g><g
       transform="translate(169.2983,418.9078)"
       id="g362"><path
         id="path364"
         style="fill:none;stroke:#918f90;stroke-width:0.51200002;stroke-linecap:round;stroke-linejoin:round;stroke-miterlimit:1.5;stroke-dasharray:none;stroke-opacity:1"
         d="M 0,0 0,4.109" /></g><g
       transform="translate(180.3735,418.9078)"
       id="g366"><path
         id="path368"
         style="fill:none;stroke:#918f90;stroke-width:0.51200002;stroke-linecap:round;stroke-linejoin:round;stroke-miterlimit:1.5;stroke-dasharray:none;stroke-opacity:1"
         d="M 0,0 0,4.109" /></g><g
       transform="translate(191.444,418.9078)"
       id="g370"><path
         id="path372"
         style="fill:none;stroke:#918f90;stroke-width:0.51200002;stroke-linecap:round;stroke-linejoin:round;stroke-miterlimit:1.5;stroke-dasharray:none;stroke-opacity:1"
         d="M 0,0 0,4.109" /></g><g
       transform="translate(202.5144,418.9078)"
       id="g374"><path
         id="path376"
         style="fill:none;stroke:#918f90;stroke-width:0.51200002;stroke-linecap:round;stroke-linejoin:round;stroke-miterlimit:1.5;stroke-dasharray:none;stroke-opacity:1"
         d="M 0,0 0,4.109" /></g><g
       transform="translate(213.5848,418.9078)"
       id="g378"><path
         id="path380"
         style="fill:none;stroke:#918f90;stroke-width:0.51200002;stroke-linecap:round;stroke-linejoin:round;stroke-miterlimit:1.5;stroke-dasharray:none;stroke-opacity:1"
         d="M 0,0 0,4.109" /></g><g
       transform="translate(224.66,418.9078)"
       id="g382"><path
         id="path384"
         style="fill:none;stroke:#918f90;stroke-width:0.51200002;stroke-linecap:round;stroke-linejoin:round;stroke-miterlimit:1.5;stroke-dasharray:none;stroke-opacity:1"
         d="M 0,0 0,4.109" /></g><g
       transform="translate(235.7305,418.9078)"
       id="g386"><path
         id="path388"
         style="fill:none;stroke:#918f90;stroke-width:0.51200002;stroke-linecap:round;stroke-linejoin:round;stroke-miterlimit:1.5;stroke-dasharray:none;stroke-opacity:1"
         d="M 0,0 0,4.109" /></g><g
       transform="translate(246.8009,418.9078)"
       id="g390"><path
         id="path392"
         style="fill:none;stroke:#918f90;stroke-width:0.51200002;stroke-linecap:round;stroke-linejoin:round;stroke-miterlimit:1.5;stroke-dasharray:none;stroke-opacity:1"
         d="M 0,0 0,4.109" /></g><g
       transform="translate(257.8714,418.9078)"
       id="g394"><path
         id="path396"
         style="fill:none;stroke:#918f90;stroke-width:0.51200002;stroke-linecap:round;stroke-linejoin:round;stroke-miterlimit:1.5;stroke-dasharray:none;stroke-opacity:1"
         d="M 0,0 0,4.109" /></g><g
       transform="translate(268.9466,418.9078)"
       id="g398"><path
         id="path400"
         style="fill:none;stroke:#918f90;stroke-width:0.51200002;stroke-linecap:round;stroke-linejoin:round;stroke-miterlimit:1.5;stroke-dasharray:none;stroke-opacity:1"
         d="M 0,0 0,4.109" /></g><g
       transform="translate(280.017,418.9078)"
       id="g402"><path
         id="path404"
         style="fill:none;stroke:#918f90;stroke-width:0.51200002;stroke-linecap:round;stroke-linejoin:round;stroke-miterlimit:1.5;stroke-dasharray:none;stroke-opacity:1"
         d="M 0,0 0,4.109" /></g><g
       transform="translate(291.0874,418.9078)"
       id="g406"><path
         id="path408"
         style="fill:none;stroke:#918f90;stroke-width:0.51200002;stroke-linecap:round;stroke-linejoin:round;stroke-miterlimit:1.5;stroke-dasharray:none;stroke-opacity:1"
         d="M 0,0 0,4.109" /></g><g
       transform="translate(302.1578,418.9078)"
       id="g410"><path
         id="path412"
         style="fill:none;stroke:#918f90;stroke-width:0.51200002;stroke-linecap:round;stroke-linejoin:round;stroke-miterlimit:1.5;stroke-dasharray:none;stroke-opacity:1"
         d="M 0,0 0,4.109" /></g><g
       transform="translate(313.2331,418.9078)"
       id="g414"><path
         id="path416"
         style="fill:none;stroke:#918f90;stroke-width:0.51200002;stroke-linecap:round;stroke-linejoin:round;stroke-miterlimit:1.5;stroke-dasharray:none;stroke-opacity:1"
         d="M 0,0 0,4.109" /></g><g
       transform="translate(324.3036,418.9078)"
       id="g418"><path
         id="path420"
         style="fill:none;stroke:#918f90;stroke-width:0.51200002;stroke-linecap:round;stroke-linejoin:round;stroke-miterlimit:1.5;stroke-dasharray:none;stroke-opacity:1"
         d="M 0,0 0,4.109" /></g><g
       transform="translate(335.3739,418.9078)"
       id="g422"><path
         id="path424"
         style="fill:none;stroke:#918f90;stroke-width:0.51200002;stroke-linecap:round;stroke-linejoin:round;stroke-miterlimit:1.5;stroke-dasharray:none;stroke-opacity:1"
         d="M 0,0 0,4.109" /></g><g
       transform="translate(346.4444,418.9078)"
       id="g426"><path
         id="path428"
         style="fill:none;stroke:#918f90;stroke-width:0.51200002;stroke-linecap:round;stroke-linejoin:round;stroke-miterlimit:1.5;stroke-dasharray:none;stroke-opacity:1"
         d="M 0,0 0,4.109" /></g><g
       transform="translate(357.5197,418.9078)"
       id="g430"><path
         id="path432"
         style="fill:none;stroke:#918f90;stroke-width:0.51200002;stroke-linecap:round;stroke-linejoin:round;stroke-miterlimit:1.5;stroke-dasharray:none;stroke-opacity:1"
         d="M 0,0 0,4.109" /></g><g
       transform="translate(368.5901,418.9078)"
       id="g434"><path
         id="path436"
         style="fill:none;stroke:#918f90;stroke-width:0.51200002;stroke-linecap:round;stroke-linejoin:round;stroke-miterlimit:1.5;stroke-dasharray:none;stroke-opacity:1"
         d="M 0,0 0,4.109" /></g><g
       transform="translate(379.6606,418.9078)"
       id="g438"><path
         id="path440"
         style="fill:none;stroke:#918f90;stroke-width:0.51200002;stroke-linecap:round;stroke-linejoin:round;stroke-miterlimit:1.5;stroke-dasharray:none;stroke-opacity:1"
         d="M 0,0 0,4.109" /></g><g
       transform="translate(390.7309,418.9078)"
       id="g442"><path
         id="path444"
         style="fill:none;stroke:#918f90;stroke-width:0.51200002;stroke-linecap:round;stroke-linejoin:round;stroke-miterlimit:1.5;stroke-dasharray:none;stroke-opacity:1"
         d="M 0,0 0,4.109" /></g><g
       transform="translate(401.8062,418.9078)"
       id="g446"><path
         id="path448"
         style="fill:none;stroke:#918f90;stroke-width:0.51200002;stroke-linecap:round;stroke-linejoin:round;stroke-miterlimit:1.5;stroke-dasharray:none;stroke-opacity:1"
         d="M 0,0 0,4.109" /></g><g
       transform="translate(412.8767,418.9078)"
       id="g450"><path
         id="path452"
         style="fill:none;stroke:#918f90;stroke-width:0.51200002;stroke-linecap:round;stroke-linejoin:round;stroke-miterlimit:1.5;stroke-dasharray:none;stroke-opacity:1"
         d="M 0,0 0,4.109" /></g><g
       transform="translate(423.9471,418.9078)"
       id="g454"><path
         id="path456"
         style="fill:none;stroke:#918f90;stroke-width:0.51200002;stroke-linecap:round;stroke-linejoin:round;stroke-miterlimit:1.5;stroke-dasharray:none;stroke-opacity:1"
         d="M 0,0 0,4.109" /></g><g
       transform="translate(435.0175,418.9078)"
       id="g458"><path
         id="path460"
         style="fill:none;stroke:#918f90;stroke-width:0.51200002;stroke-linecap:round;stroke-linejoin:round;stroke-miterlimit:1.5;stroke-dasharray:none;stroke-opacity:1"
         d="M 0,0 0,4.109" /></g><g
       transform="translate(80.7301,418.9078)"
       id="g462"><path
         id="path464"
         style="fill:none;stroke:#918f90;stroke-width:0.51200002;stroke-linecap:round;stroke-linejoin:round;stroke-miterlimit:1.5;stroke-dasharray:none;stroke-opacity:1"
         d="M 0,0 0,4.109" /></g><g
       transform="translate(80.7301,447.6746)"
       id="g466"><path
         id="path468"
         style="fill:none;stroke:#918f90;stroke-width:0.51200002;stroke-linecap:round;stroke-linejoin:round;stroke-miterlimit:1.5;stroke-dasharray:none;stroke-opacity:1"
         d="M 0,0 357.983,0" /></g><g
       transform="translate(77.0011,423.0173)"
       id="g470"><path
         id="path472"
         style="fill:none;stroke:#918f90;stroke-width:0.51200002;stroke-linecap:round;stroke-linejoin:round;stroke-miterlimit:1.5;stroke-dasharray:none;stroke-opacity:1"
         d="M 0,0 3.729,0" /></g><g
       transform="translate(77.0011,447.6746)"
       id="g474"><path
         id="path476"
         style="fill:none;stroke:#918f90;stroke-width:0.51200002;stroke-linecap:round;stroke-linejoin:round;stroke-miterlimit:1.5;stroke-dasharray:none;stroke-opacity:1"
         d="M 0,0 3.729,0" /></g><g
       transform="translate(77.0011,472.332)"
       id="g478"><path
         id="path480"
         style="fill:none;stroke:#918f90;stroke-width:0.51200002;stroke-linecap:round;stroke-linejoin:round;stroke-miterlimit:1.5;stroke-dasharray:none;stroke-opacity:1"
         d="M 0,0 3.729,0" /></g><g
       transform="translate(77.0011,496.9892)"
       id="g482"><path
         id="path484"
         style="fill:none;stroke:#918f90;stroke-width:0.51200002;stroke-linecap:round;stroke-linejoin:round;stroke-miterlimit:1.5;stroke-dasharray:none;stroke-opacity:1"
         d="M 0,0 3.729,0" /></g><g
       transform="translate(77.0011,521.6465)"
       id="g486"><path
         id="path488"
         style="fill:none;stroke:#918f90;stroke-width:0.51200002;stroke-linecap:round;stroke-linejoin:round;stroke-miterlimit:1.5;stroke-dasharray:none;stroke-opacity:1"
         d="M 0,0 3.729,0" /></g><g
       transform="translate(77.0011,546.3038)"
       id="g490"><path
         id="path492"
         style="fill:none;stroke:#918f90;stroke-width:0.51200002;stroke-linecap:round;stroke-linejoin:round;stroke-miterlimit:1.5;stroke-dasharray:none;stroke-opacity:1"
         d="M 0,0 3.729,0" /></g><g
       transform="translate(73.2721,423.0173)"
       id="g494"><path
         id="path496"
         style="fill:none;stroke:#918f90;stroke-width:0.51200002;stroke-linecap:round;stroke-linejoin:round;stroke-miterlimit:1.5;stroke-dasharray:none;stroke-opacity:1"
         d="M 0,0 7.458,0" /></g><g
       transform="translate(73.2721,447.6746)"
       id="g498"><path
         id="path500"
         style="fill:none;stroke:#918f90;stroke-width:0.51200002;stroke-linecap:round;stroke-linejoin:round;stroke-miterlimit:1.5;stroke-dasharray:none;stroke-opacity:1"
         d="M 0,0 7.458,0" /></g><g
       transform="translate(73.2721,472.332)"
       id="g502"><path
         id="path504"
         style="fill:none;stroke:#918f90;stroke-width:0.51200002;stroke-linecap:round;stroke-linejoin:round;stroke-miterlimit:1.5;stroke-dasharray:none;stroke-opacity:1"
         d="M 0,0 7.458,0" /></g><g
       transform="translate(73.2721,496.9892)"
       id="g506"><path
         id="path508"
         style="fill:none;stroke:#918f90;stroke-width:0.51200002;stroke-linecap:round;stroke-linejoin:round;stroke-miterlimit:1.5;stroke-dasharray:none;stroke-opacity:1"
         d="M 0,0 7.458,0" /></g><g
       transform="translate(73.2721,521.6465)"
       id="g510"><path
         id="path512"
         style="fill:none;stroke:#918f90;stroke-width:0.51200002;stroke-linecap:round;stroke-linejoin:round;stroke-miterlimit:1.5;stroke-dasharray:none;stroke-opacity:1"
         d="M 0,0 7.458,0" /></g><g
       transform="translate(73.2721,546.3038)"
       id="g514"><path
         id="path516"
         style="fill:none;stroke:#918f90;stroke-width:0.51200002;stroke-linecap:round;stroke-linejoin:round;stroke-miterlimit:1.5;stroke-dasharray:none;stroke-opacity:1"
         d="M 0,0 7.458,0" /></g><g
       transform="translate(82.5751,423.0173)"
       id="g518"><path
         id="path520"
         style="fill:none;stroke:#918f90;stroke-width:0.51200002;stroke-linecap:round;stroke-linejoin:round;stroke-miterlimit:1.5;stroke-dasharray:none;stroke-opacity:1"
         d="M 0,0 3.69,0" /></g><g
       transform="translate(80.7301,423.0173)"
       id="g522"><path
         id="path524"
         style="fill:none;stroke:#231f20;stroke-width:1.02400005;stroke-linecap:round;stroke-linejoin:round;stroke-miterlimit:1.5;stroke-dasharray:none;stroke-opacity:1"
         d="M 0,0 357.983,0" /></g><g
       transform="translate(80.7301,570.9611)"
       id="g526"><path
         id="path528"
         style="fill:none;stroke:#231f20;stroke-width:1.02400005;stroke-linecap:round;stroke-linejoin:round;stroke-miterlimit:1.5;stroke-dasharray:none;stroke-opacity:1"
         d="M 0,0 357.983,0" /></g><g
       transform="translate(80.7301,423.0173)"
       id="g530"><path
         id="path532"
         style="fill:none;stroke:#231f20;stroke-width:1.02400005;stroke-linecap:round;stroke-linejoin:round;stroke-miterlimit:1.5;stroke-dasharray:none;stroke-opacity:1"
         d="M 0,0 0,147.944" /></g><g
       transform="translate(438.7125,423.0173)"
       id="g534"><path
         id="path536"
         style="fill:none;stroke:#231f20;stroke-width:1.02400005;stroke-linecap:round;stroke-linejoin:round;stroke-miterlimit:1.5;stroke-dasharray:none;stroke-opacity:1"
         d="M 0,0 0,147.944" /></g><g
       transform="translate(436.8626,430.91)"
       id="g538"><path
         id="path540"
         style="fill:none;stroke:#231f20;stroke-width:1.02400005;stroke-linecap:round;stroke-linejoin:round;stroke-miterlimit:1.5;stroke-dasharray:none;stroke-opacity:1"
         d="m 0,0 -3.69,-5.919 -3.69,3.945 -3.69,0 -3.691,-0.493 -3.69,-2.467 -3.69,0.988 -3.69,0 -3.69,-0.493 -3.691,-1.974 -3.689,0.494 -3.691,-0.494 -3.694,2.467 -3.691,2.959 -3.69,-0.987 -3.69,0 -3.69,6.41 -3.69,7.893 -3.691,4.93 -3.689,1.48 -3.69,-2.959 -3.691,2.959 -3.69,12.821 -3.69,-17.259 -3.695,10.849 -3.691,0.492 -3.689,-9.37 -3.691,-6.903 -3.69,38.466 -3.689,-19.727 -3.691,-8.384 -3.69,-4.436 -3.691,0.492 -3.689,-4.438 -3.691,-0.493 -3.69,47.835 -3.694,-37.973 -3.691,1.972 -3.69,11.344 -3.69,-9.865 -3.69,-10.354 -3.691,6.903 -3.689,-5.919 -3.69,-1.479 -3.691,-2.464 -3.69,24.658 -3.69,-10.85 -3.69,27.122 -3.691,-38.466 -3.694,1.479 -3.69,-10.849 -3.691,-6.41 -3.689,40.437 -3.691,24.165 -3.69,-4.438 -3.691,-8.878 -3.689,2.467 -3.69,4.439 -3.691,59.177 -3.689,-50.3 -3.691,47.835 -3.695,-46.85 -3.69,53.753 -3.69,7.89 -3.69,-16.272 -3.691,-24.658 -3.689,-5.425 -3.691,12.329 -3.69,-65.096 -3.69,62.628 -3.69,-29.588 -3.69,7.398 -3.691,-47.835 -3.694,100.601 -3.691,-25.641 -3.689,-93.699 -3.691,69.534 -3.69,-69.534 -3.69,48.823 -3.69,-12.825 -3.69,92.219 -3.691,-115.397 -3.69,-22.685 -3.69,0 -3.69,32.55 -3.694,-21.698 -3.691,-0.495 -3.69,-10.357 -3.691,0 -3.689,0 -3.691,16.768 -3.69,-16.768 -3.69,71.508 -3.69,-71.508 -3.69,0 -3.691,0" /></g></g></svg>