<?xml version="1.0" encoding="UTF-8" standalone="no"?>
<svg
   xmlns:dc="http://purl.org/dc/elements/1.1/"
   xmlns:cc="http://creativecommons.org/ns#"
   xmlns:rdf="http://www.w3.org/1999/02/22-rdf-syntax-ns#"
   xmlns:svg="http://www.w3.org/2000/svg"
   xmlns="http://www.w3.org/2000/svg"
   viewBox="0 0 470.70477 271.44284"
   height="271.44284"
   width="470.70477"
   xml:space="preserve"
   version="1.1"
   id="svg2"><metadata
     id="metadata8"><rdf:RDF><cc:Work
         rdf:about=""><dc:format>image/svg+xml</dc:format><dc:type
           rdf:resource="http://purl.org/dc/dcmitype/StillImage" /><dc:title></dc:title></cc:Work></rdf:RDF></metadata><defs
     id="defs6" /><g
     transform="matrix(1.25,0,0,-1.25,-60.829122,708.10613)"
     id="g10"><text
       id="text90"
       style="font-variant:normal;font-weight:500;font-stretch:normal;font-size:9.26109982px;font-family:Delicious;-inkscape-font-specification:Delicious-Roman;writing-mode:lr-tb;fill:#110f0d;fill-opacity:1;fill-rule:nonzero;stroke:none"
       transform="matrix(1,0,0,-1,68.7321,396.3585)"><tspan
         id="tspan92"
         y="0"
         x="0 4.1674948 8.3349895 12.502485 16.669979 19.985455 24.152948 40.258003 44.425495 48.592991 52.760487 56.927982 60.243454 64.41095 80.516006 84.683502 88.85099 93.018486 96.815536 100.13101 104.29851 120.774 124.9415 129.10899 133.27649 137.44398 140.75946 144.92696 161.03201 165.19951 169.367 173.53448 177.70198 181.01746 185.18495 201.29001 205.4575 209.625 213.7925 217.95999 221.27547 225.44296 241.548 245.7155 249.883 254.05049 258.21799 261.53348 265.70096 281.806 285.97351 290.14099 294.3085 298.47598 301.79147 305.95895 322.06403 326.23151 330.39902 334.5665 338.73401 342.04947 346.21695">1921–251926–301931–351936–401941–451946–501951–551956–601961–65</tspan><tspan
         id="tspan94"
         y="-10.381693"
         x="-20.328114">0</tspan><tspan
         id="tspan96"
         y="-26.736795"
         x="-20.328114">1</tspan><tspan
         id="tspan98"
         y="-43.082638"
         x="-20.328114">2</tspan><tspan
         id="tspan100"
         y="-59.428478"
         x="-20.328114">3</tspan><tspan
         id="tspan102"
         y="-75.774323"
         x="-20.328114">4</tspan><tspan
         id="tspan104"
         y="-92.120163"
         x="-20.328114">5</tspan><tspan
         id="tspan106"
         y="-108.47526"
         x="-20.328114">6</tspan><tspan
         id="tspan108"
         y="-124.82111"
         x="-20.328114">7</tspan><tspan
         id="tspan110"
         y="-141.16695"
         x="-20.328114">8</tspan><tspan
         id="tspan112"
         y="-157.51279"
         x="-20.328114">9</tspan><tspan
         id="tspan114"
         y="17.410868"
         x="7.9089794 12.974801 17.336779 21.652452 24.486349 29.29286 32.07119 36.748043 41.063717 43.897614 48.259594 50.648956 53.427284 58.280102 62.642082 67.448593 71.81057 74.764862 79.080536 81.266151 84.044479 88.573158 93.092575 97.871307 102.67782 104.86343 109.17911 112.01301 114.21715 118.73656 123.54308 125.93243 128.21066 132.93382 137.14763 141.50961 145.39928 148.1776 152.34509 155.66057 159.82806">Death Rate, General Population, Ages 5–14</tspan><tspan
         id="tspan116"
         y="-163.6992"
         x="-6.0382371 -0.97241551 3.3895626 7.705235 10.539132 15.345643 18.123972 21.078264 25.393936 28.227833 32.589809 35.368141 40.14687 44.508846 47.463139 50.241467 54.408962 56.798325 60.96582 65.133316 69.300812 72.07914 75.968803 78.802696 83.609207 88.350891 92.712875 97.519386 100.35328">Death rate per 1,000 students</tspan><tspan
         id="tspan118"
         y="31.182123"
         x="7.9182405 13.04889 17.364563 24.504871 28.866848 33.608532 36.386864 41.063717 45.425697 49.315357 51.519501 56.261181 60.623161 65.429672 68.263565 70.467712 74.783386 76.969002 79.74733 83.766647 87.582222 92.388733 96.90815 101.42757 103.61319 106.39152 111.45734 115.81931 120.13499 122.96889 127.7754 130.55373 135.23058 139.54625 142.38016">Named Residential School Death Rate</tspan><tspan
         id="tspan120"
         y="46.88895"
         x="7.9182405 12.521008 17.040424 24.180733 28.839066 31.043207 35.84972 40.211697 44.953381 47.731709 52.408566 56.770542 60.660206 62.864346 67.606033 71.96801 76.774521 79.608414 81.812561 86.128227 88.31385 91.092178 95.111496 98.927071 103.73358 108.253 112.77242 114.95803 117.73637 122.80219 127.16416 131.47984 134.31374 139.12024 141.89857 146.57542 150.8911 153.72501">Combined Residential School Death Rate</tspan></text>
<path
       id="path122"
       style="fill:#545659;fill-opacity:1;fill-rule:nonzero;stroke:none"
       d="m 62.921,378.96 8.232,0 0,8.231 -8.232,0 0,-8.231 z" /><path
       id="path124"
       style="fill:#c9c6c3;fill-opacity:1;fill-rule:nonzero;stroke:none"
       d="m 62.921,364.278 8.232,0 0,8.231 -8.232,0 0,-8.231 z" /><path
       id="path126"
       style="fill:#868788;fill-opacity:1;fill-rule:nonzero;stroke:none"
       d="m 62.921,349.597 8.232,0 0,8.231 -8.232,0 0,-8.231 z" /><g
       transform="translate(62.7013,424.8182)"
       id="g128"><path
         id="path130"
         style="fill:none;stroke:#918f90;stroke-width:0.514;stroke-linecap:round;stroke-linejoin:round;stroke-miterlimit:1.5;stroke-dasharray:none;stroke-opacity:1"
         d="M 0,0 362.004,0" /></g><g
       transform="translate(62.7013,440.9768)"
       id="g132"><path
         id="path134"
         style="fill:none;stroke:#918f90;stroke-width:0.514;stroke-linecap:round;stroke-linejoin:round;stroke-miterlimit:1.5;stroke-dasharray:none;stroke-opacity:1"
         d="M 0,0 362.004,0" /></g><g
       transform="translate(62.7013,457.1356)"
       id="g136"><path
         id="path138"
         style="fill:none;stroke:#918f90;stroke-width:0.514;stroke-linecap:round;stroke-linejoin:round;stroke-miterlimit:1.5;stroke-dasharray:none;stroke-opacity:1"
         d="M 0,0 362.004,0" /></g><g
       transform="translate(62.7013,473.2943)"
       id="g140"><path
         id="path142"
         style="fill:none;stroke:#918f90;stroke-width:0.514;stroke-linecap:round;stroke-linejoin:round;stroke-miterlimit:1.5;stroke-dasharray:none;stroke-opacity:1"
         d="M 0,0 362.004,0" /></g><g
       transform="translate(62.7013,489.453)"
       id="g144"><path
         id="path146"
         style="fill:none;stroke:#918f90;stroke-width:0.514;stroke-linecap:round;stroke-linejoin:round;stroke-miterlimit:1.5;stroke-dasharray:none;stroke-opacity:1"
         d="M 0,0 362.004,0" /></g><g
       transform="translate(62.7013,505.6117)"
       id="g148"><path
         id="path150"
         style="fill:none;stroke:#918f90;stroke-width:0.514;stroke-linecap:round;stroke-linejoin:round;stroke-miterlimit:1.5;stroke-dasharray:none;stroke-opacity:1"
         d="M 0,0 362.004,0" /></g><g
       transform="translate(62.7013,521.7704)"
       id="g152"><path
         id="path154"
         style="fill:none;stroke:#918f90;stroke-width:0.514;stroke-linecap:round;stroke-linejoin:round;stroke-miterlimit:1.5;stroke-dasharray:none;stroke-opacity:1"
         d="M 0,0 362.004,0" /></g><g
       transform="translate(62.7013,537.9292)"
       id="g156"><path
         id="path158"
         style="fill:none;stroke:#918f90;stroke-width:0.514;stroke-linecap:round;stroke-linejoin:round;stroke-miterlimit:1.5;stroke-dasharray:none;stroke-opacity:1"
         d="M 0,0 362.004,0" /></g><g
       transform="translate(102.924,408.6595)"
       id="g160"><path
         id="path162"
         style="fill:none;stroke:#918f90;stroke-width:0.514;stroke-linecap:round;stroke-linejoin:round;stroke-miterlimit:1.5;stroke-dasharray:none;stroke-opacity:1"
         d="M 0,0 0,145.428" /></g><g
       transform="translate(143.1466,408.6595)"
       id="g164"><path
         id="path166"
         style="fill:none;stroke:#918f90;stroke-width:0.514;stroke-linecap:round;stroke-linejoin:round;stroke-miterlimit:1.5;stroke-dasharray:none;stroke-opacity:1"
         d="M 0,0 0,145.428" /></g><g
       transform="translate(183.3693,408.6595)"
       id="g168"><path
         id="path170"
         style="fill:none;stroke:#918f90;stroke-width:0.514;stroke-linecap:round;stroke-linejoin:round;stroke-miterlimit:1.5;stroke-dasharray:none;stroke-opacity:1"
         d="M 0,0 0,145.428" /></g><g
       transform="translate(223.592,408.6595)"
       id="g172"><path
         id="path174"
         style="fill:none;stroke:#918f90;stroke-width:0.514;stroke-linecap:round;stroke-linejoin:round;stroke-miterlimit:1.5;stroke-dasharray:none;stroke-opacity:1"
         d="M 0,0 0,145.428" /></g><g
       transform="translate(263.8145,408.6595)"
       id="g176"><path
         id="path178"
         style="fill:none;stroke:#918f90;stroke-width:0.514;stroke-linecap:round;stroke-linejoin:round;stroke-miterlimit:1.5;stroke-dasharray:none;stroke-opacity:1"
         d="M 0,0 0,145.428" /></g><g
       transform="translate(304.0373,408.6595)"
       id="g180"><path
         id="path182"
         style="fill:none;stroke:#918f90;stroke-width:0.514;stroke-linecap:round;stroke-linejoin:round;stroke-miterlimit:1.5;stroke-dasharray:none;stroke-opacity:1"
         d="M 0,0 0,145.428" /></g><g
       transform="translate(344.2599,408.6595)"
       id="g184"><path
         id="path186"
         style="fill:none;stroke:#918f90;stroke-width:0.514;stroke-linecap:round;stroke-linejoin:round;stroke-miterlimit:1.5;stroke-dasharray:none;stroke-opacity:1"
         d="M 0,0 0,145.428" /></g><g
       transform="translate(384.4825,408.6595)"
       id="g188"><path
         id="path190"
         style="fill:none;stroke:#918f90;stroke-width:0.514;stroke-linecap:round;stroke-linejoin:round;stroke-miterlimit:1.5;stroke-dasharray:none;stroke-opacity:1"
         d="M 0,0 0,145.428" /></g><g
       transform="translate(58.9305,424.8182)"
       id="g192"><path
         id="path194"
         style="fill:none;stroke:#918f90;stroke-width:0.514;stroke-linecap:round;stroke-linejoin:round;stroke-miterlimit:1.5;stroke-dasharray:none;stroke-opacity:1"
         d="M 0,0 3.771,0" /></g><g
       transform="translate(58.9305,440.9768)"
       id="g196"><path
         id="path198"
         style="fill:none;stroke:#918f90;stroke-width:0.514;stroke-linecap:round;stroke-linejoin:round;stroke-miterlimit:1.5;stroke-dasharray:none;stroke-opacity:1"
         d="M 0,0 3.771,0" /></g><g
       transform="translate(58.9305,457.1356)"
       id="g200"><path
         id="path202"
         style="fill:none;stroke:#918f90;stroke-width:0.514;stroke-linecap:round;stroke-linejoin:round;stroke-miterlimit:1.5;stroke-dasharray:none;stroke-opacity:1"
         d="M 0,0 3.771,0" /></g><g
       transform="translate(58.9305,473.2943)"
       id="g204"><path
         id="path206"
         style="fill:none;stroke:#918f90;stroke-width:0.514;stroke-linecap:round;stroke-linejoin:round;stroke-miterlimit:1.5;stroke-dasharray:none;stroke-opacity:1"
         d="M 0,0 3.771,0" /></g><g
       transform="translate(58.9305,489.453)"
       id="g208"><path
         id="path210"
         style="fill:none;stroke:#918f90;stroke-width:0.514;stroke-linecap:round;stroke-linejoin:round;stroke-miterlimit:1.5;stroke-dasharray:none;stroke-opacity:1"
         d="M 0,0 3.771,0" /></g><g
       transform="translate(58.9305,505.6117)"
       id="g212"><path
         id="path214"
         style="fill:none;stroke:#918f90;stroke-width:0.514;stroke-linecap:round;stroke-linejoin:round;stroke-miterlimit:1.5;stroke-dasharray:none;stroke-opacity:1"
         d="M 0,0 3.771,0" /></g><g
       transform="translate(58.9305,521.7704)"
       id="g216"><path
         id="path218"
         style="fill:none;stroke:#918f90;stroke-width:0.514;stroke-linecap:round;stroke-linejoin:round;stroke-miterlimit:1.5;stroke-dasharray:none;stroke-opacity:1"
         d="M 0,0 3.771,0" /></g><g
       transform="translate(58.9305,537.9292)"
       id="g220"><path
         id="path222"
         style="fill:none;stroke:#918f90;stroke-width:0.514;stroke-linecap:round;stroke-linejoin:round;stroke-miterlimit:1.5;stroke-dasharray:none;stroke-opacity:1"
         d="M 0,0 3.771,0" /></g><g
       transform="translate(58.9305,554.0879)"
       id="g224"><path
         id="path226"
         style="fill:none;stroke:#918f90;stroke-width:0.514;stroke-linecap:round;stroke-linejoin:round;stroke-miterlimit:1.5;stroke-dasharray:none;stroke-opacity:1"
         d="M 0,0 3.771,0" /></g><g
       transform="translate(55.1596,424.8182)"
       id="g228"><path
         id="path230"
         style="fill:none;stroke:#918f90;stroke-width:0.514;stroke-linecap:round;stroke-linejoin:round;stroke-miterlimit:1.5;stroke-dasharray:none;stroke-opacity:1"
         d="M 0,0 7.542,0" /></g><g
       transform="translate(55.1596,440.9768)"
       id="g232"><path
         id="path234"
         style="fill:none;stroke:#918f90;stroke-width:0.514;stroke-linecap:round;stroke-linejoin:round;stroke-miterlimit:1.5;stroke-dasharray:none;stroke-opacity:1"
         d="M 0,0 7.542,0" /></g><g
       transform="translate(55.1596,457.1356)"
       id="g236"><path
         id="path238"
         style="fill:none;stroke:#918f90;stroke-width:0.514;stroke-linecap:round;stroke-linejoin:round;stroke-miterlimit:1.5;stroke-dasharray:none;stroke-opacity:1"
         d="M 0,0 7.542,0" /></g><g
       transform="translate(55.1596,473.2943)"
       id="g240"><path
         id="path242"
         style="fill:none;stroke:#918f90;stroke-width:0.514;stroke-linecap:round;stroke-linejoin:round;stroke-miterlimit:1.5;stroke-dasharray:none;stroke-opacity:1"
         d="M 0,0 7.542,0" /></g><g
       transform="translate(55.1596,489.453)"
       id="g244"><path
         id="path246"
         style="fill:none;stroke:#918f90;stroke-width:0.514;stroke-linecap:round;stroke-linejoin:round;stroke-miterlimit:1.5;stroke-dasharray:none;stroke-opacity:1"
         d="M 0,0 7.542,0" /></g><g
       transform="translate(55.1596,505.6117)"
       id="g248"><path
         id="path250"
         style="fill:none;stroke:#918f90;stroke-width:0.514;stroke-linecap:round;stroke-linejoin:round;stroke-miterlimit:1.5;stroke-dasharray:none;stroke-opacity:1"
         d="M 0,0 7.542,0" /></g><g
       transform="translate(55.1596,521.7704)"
       id="g252"><path
         id="path254"
         style="fill:none;stroke:#918f90;stroke-width:0.514;stroke-linecap:round;stroke-linejoin:round;stroke-miterlimit:1.5;stroke-dasharray:none;stroke-opacity:1"
         d="M 0,0 7.542,0" /></g><g
       transform="translate(55.1596,537.9292)"
       id="g256"><path
         id="path258"
         style="fill:none;stroke:#918f90;stroke-width:0.514;stroke-linecap:round;stroke-linejoin:round;stroke-miterlimit:1.5;stroke-dasharray:none;stroke-opacity:1"
         d="M 0,0 7.542,0" /></g><g
       transform="translate(55.1596,554.0879)"
       id="g260"><path
         id="path262"
         style="fill:none;stroke:#918f90;stroke-width:0.514;stroke-linecap:round;stroke-linejoin:round;stroke-miterlimit:1.5;stroke-dasharray:none;stroke-opacity:1"
         d="M 0,0 7.542,0" /></g><g
       transform="translate(58.9305,408.6595)"
       id="g264"><path
         id="path266"
         style="fill:none;stroke:#918f90;stroke-width:0.514;stroke-linecap:round;stroke-linejoin:round;stroke-miterlimit:1.5;stroke-dasharray:none;stroke-opacity:1"
         d="M 0,0 3.771,0" /></g><g
       transform="translate(55.1596,408.6595)"
       id="g268"><path
         id="path270"
         style="fill:none;stroke:#918f90;stroke-width:0.514;stroke-linecap:round;stroke-linejoin:round;stroke-miterlimit:1.5;stroke-dasharray:none;stroke-opacity:1"
         d="M 0,0 7.542,0" /></g><g
       transform="translate(62.7013,404.6198)"
       id="g272"><path
         id="path274"
         style="fill:none;stroke:#918f90;stroke-width:0.514;stroke-linecap:round;stroke-linejoin:round;stroke-miterlimit:1.5;stroke-dasharray:none;stroke-opacity:1"
         d="M 0,0 0,4.04" /></g><g
       transform="translate(102.924,404.6198)"
       id="g276"><path
         id="path278"
         style="fill:none;stroke:#918f90;stroke-width:0.514;stroke-linecap:round;stroke-linejoin:round;stroke-miterlimit:1.5;stroke-dasharray:none;stroke-opacity:1"
         d="M 0,0 0,4.04" /></g><g
       transform="translate(143.1466,404.6198)"
       id="g280"><path
         id="path282"
         style="fill:none;stroke:#918f90;stroke-width:0.514;stroke-linecap:round;stroke-linejoin:round;stroke-miterlimit:1.5;stroke-dasharray:none;stroke-opacity:1"
         d="M 0,0 0,4.04" /></g><g
       transform="translate(183.3693,404.6198)"
       id="g284"><path
         id="path286"
         style="fill:none;stroke:#918f90;stroke-width:0.514;stroke-linecap:round;stroke-linejoin:round;stroke-miterlimit:1.5;stroke-dasharray:none;stroke-opacity:1"
         d="M 0,0 0,4.04" /></g><g
       transform="translate(223.592,404.6198)"
       id="g288"><path
         id="path290"
         style="fill:none;stroke:#918f90;stroke-width:0.514;stroke-linecap:round;stroke-linejoin:round;stroke-miterlimit:1.5;stroke-dasharray:none;stroke-opacity:1"
         d="M 0,0 0,4.04" /></g><g
       transform="translate(263.8145,404.6198)"
       id="g292"><path
         id="path294"
         style="fill:none;stroke:#918f90;stroke-width:0.514;stroke-linecap:round;stroke-linejoin:round;stroke-miterlimit:1.5;stroke-dasharray:none;stroke-opacity:1"
         d="M 0,0 0,4.04" /></g><g
       transform="translate(304.0373,404.6198)"
       id="g296"><path
         id="path298"
         style="fill:none;stroke:#918f90;stroke-width:0.514;stroke-linecap:round;stroke-linejoin:round;stroke-miterlimit:1.5;stroke-dasharray:none;stroke-opacity:1"
         d="M 0,0 0,4.04" /></g><g
       transform="translate(344.2599,404.6198)"
       id="g300"><path
         id="path302"
         style="fill:none;stroke:#918f90;stroke-width:0.514;stroke-linecap:round;stroke-linejoin:round;stroke-miterlimit:1.5;stroke-dasharray:none;stroke-opacity:1"
         d="M 0,0 0,4.04" /></g><g
       transform="translate(384.4825,404.6198)"
       id="g304"><path
         id="path306"
         style="fill:none;stroke:#918f90;stroke-width:0.514;stroke-linecap:round;stroke-linejoin:round;stroke-miterlimit:1.5;stroke-dasharray:none;stroke-opacity:1"
         d="M 0,0 0,4.04" /></g><g
       transform="translate(424.7052,404.6198)"
       id="g308"><path
         id="path310"
         style="fill:none;stroke:#918f90;stroke-width:0.514;stroke-linecap:round;stroke-linejoin:round;stroke-miterlimit:1.5;stroke-dasharray:none;stroke-opacity:1"
         d="M 0,0 0,4.04" /></g><path
       id="path312"
       style="fill:#868788;fill-opacity:1;fill-rule:nonzero;stroke:none"
       d="m 87.84,408.659 10.055,0 0,74.492 -10.055,0 0,-74.492 z" /><path
       id="path314"
       style="fill:#868788;fill-opacity:1;fill-rule:nonzero;stroke:none"
       d="m 128.063,408.659 10.055,0 0,132.825 -10.055,0 0,-132.825 z" /><path
       id="path316"
       style="fill:#868788;fill-opacity:1;fill-rule:nonzero;stroke:none"
       d="m 168.286,408.659 10.055,0 0,73.848 -10.055,0 0,-73.848 z" /><path
       id="path318"
       style="fill:#868788;fill-opacity:1;fill-rule:nonzero;stroke:none"
       d="m 208.509,408.659 10.055,0 0,109.234 -10.055,0 0,-109.234 z" /><path
       id="path320"
       style="fill:#868788;fill-opacity:1;fill-rule:nonzero;stroke:none"
       d="m 248.731,408.659 10.055,0 0,95.014 -10.055,0 0,-95.014 z" /><path
       id="path322"
       style="fill:#868788;fill-opacity:1;fill-rule:nonzero;stroke:none"
       d="m 288.953,408.659 10.055,0 0,58.656 -10.055,0 0,-58.656 z" /><path
       id="path324"
       style="fill:#868788;fill-opacity:1;fill-rule:nonzero;stroke:none"
       d="m 329.176,408.659 10.055,0 0,13.09 -10.055,0 0,-13.09 z" /><path
       id="path326"
       style="fill:#868788;fill-opacity:1;fill-rule:nonzero;stroke:none"
       d="m 369.399,408.659 10.055,0 0,10.504 -10.055,0 0,-10.504 z" /><path
       id="path328"
       style="fill:#868788;fill-opacity:1;fill-rule:nonzero;stroke:none"
       d="m 409.622,408.659 10.055,0 0,17.453 -10.055,0 0,-17.453 z" /><path
       id="path330"
       style="fill:#868788;fill-opacity:1;fill-rule:nonzero;stroke:none"
       d="m 87.84,408.659 10.055,0 0,74.492 -10.055,0 0,-74.492 z" /><path
       id="path332"
       style="fill:#868788;fill-opacity:1;fill-rule:nonzero;stroke:none"
       d="m 128.063,408.659 10.055,0 0,132.825 -10.055,0 0,-132.825 z" /><path
       id="path334"
       style="fill:#868788;fill-opacity:1;fill-rule:nonzero;stroke:none"
       d="m 168.286,408.659 10.055,0 0,73.848 -10.055,0 0,-73.848 z" /><path
       id="path336"
       style="fill:#868788;fill-opacity:1;fill-rule:nonzero;stroke:none"
       d="m 208.509,408.659 10.055,0 0,109.234 -10.055,0 0,-109.234 z" /><path
       id="path338"
       style="fill:#868788;fill-opacity:1;fill-rule:nonzero;stroke:none"
       d="m 248.731,408.659 10.055,0 0,95.014 -10.055,0 0,-95.014 z" /><path
       id="path340"
       style="fill:#868788;fill-opacity:1;fill-rule:nonzero;stroke:none"
       d="m 288.953,408.659 10.055,0 0,58.656 -10.055,0 0,-58.656 z" /><path
       id="path342"
       style="fill:#868788;fill-opacity:1;fill-rule:nonzero;stroke:none"
       d="m 329.176,408.659 10.055,0 0,13.09 -10.055,0 0,-13.09 z" /><path
       id="path344"
       style="fill:#868788;fill-opacity:1;fill-rule:nonzero;stroke:none"
       d="m 369.399,408.659 10.055,0 0,10.504 -10.055,0 0,-10.504 z" /><path
       id="path346"
       style="fill:#868788;fill-opacity:1;fill-rule:nonzero;stroke:none"
       d="m 409.622,408.659 10.055,0 0,17.453 -10.055,0 0,-17.453 z" /><path
       id="path348"
       style="fill:#c9c6c3;fill-opacity:1;fill-rule:nonzero;stroke:none"
       d="m 77.785,408.659 10.055,0 0,64.314 -10.055,0 0,-64.314 z" /><path
       id="path350"
       style="fill:#c9c6c3;fill-opacity:1;fill-rule:nonzero;stroke:none"
       d="m 118.008,408.659 10.055,0 0,93.883 -10.055,0 0,-93.883 z" /><path
       id="path352"
       style="fill:#c9c6c3;fill-opacity:1;fill-rule:nonzero;stroke:none"
       d="m 158.23,408.659 10.055,0 0,68.19 -10.055,0 0,-68.19 z" /><path
       id="path354"
       style="fill:#c9c6c3;fill-opacity:1;fill-rule:nonzero;stroke:none"
       d="m 198.452,408.659 10.055,0 0,93.236 -10.055,0 0,-93.236 z" /><path
       id="path356"
       style="fill:#c9c6c3;fill-opacity:1;fill-rule:nonzero;stroke:none"
       d="m 238.675,408.659 10.055,0 0,91.622 -10.055,0 0,-91.622 z" /><path
       id="path358"
       style="fill:#c9c6c3;fill-opacity:1;fill-rule:nonzero;stroke:none"
       d="m 278.898,408.659 10.055,0 0,56.555 -10.055,0 0,-56.555 z" /><path
       id="path360"
       style="fill:#c9c6c3;fill-opacity:1;fill-rule:nonzero;stroke:none"
       d="m 319.121,408.659 10.055,0 0,12.766 -10.055,0 0,-12.766 z" /><path
       id="path362"
       style="fill:#c9c6c3;fill-opacity:1;fill-rule:nonzero;stroke:none"
       d="m 359.344,408.659 10.055,0 0,8.242 -10.055,0 0,-8.242 z" /><path
       id="path364"
       style="fill:#c9c6c3;fill-opacity:1;fill-rule:nonzero;stroke:none"
       d="m 399.566,408.659 10.055,0 0,17.453 -10.055,0 0,-17.453 z" /><path
       id="path366"
       style="fill:#c9c6c3;fill-opacity:1;fill-rule:nonzero;stroke:none"
       d="m 77.785,408.659 10.055,0 0,64.314 -10.055,0 0,-64.314 z" /><path
       id="path368"
       style="fill:#c9c6c3;fill-opacity:1;fill-rule:nonzero;stroke:none"
       d="m 118.008,408.659 10.055,0 0,93.883 -10.055,0 0,-93.883 z" /><path
       id="path370"
       style="fill:#c9c6c3;fill-opacity:1;fill-rule:nonzero;stroke:none"
       d="m 158.23,408.659 10.055,0 0,68.19 -10.055,0 0,-68.19 z" /><path
       id="path372"
       style="fill:#c9c6c3;fill-opacity:1;fill-rule:nonzero;stroke:none"
       d="m 198.452,408.659 10.055,0 0,93.236 -10.055,0 0,-93.236 z" /><path
       id="path374"
       style="fill:#c9c6c3;fill-opacity:1;fill-rule:nonzero;stroke:none"
       d="m 238.675,408.659 10.055,0 0,91.622 -10.055,0 0,-91.622 z" /><path
       id="path376"
       style="fill:#c9c6c3;fill-opacity:1;fill-rule:nonzero;stroke:none"
       d="m 278.898,408.659 10.055,0 0,56.555 -10.055,0 0,-56.555 z" /><path
       id="path378"
       style="fill:#c9c6c3;fill-opacity:1;fill-rule:nonzero;stroke:none"
       d="m 319.121,408.659 10.055,0 0,12.766 -10.055,0 0,-12.766 z" /><path
       id="path380"
       style="fill:#c9c6c3;fill-opacity:1;fill-rule:nonzero;stroke:none"
       d="m 359.344,408.659 10.055,0 0,8.242 -10.055,0 0,-8.242 z" /><path
       id="path382"
       style="fill:#c9c6c3;fill-opacity:1;fill-rule:nonzero;stroke:none"
       d="m 399.566,408.659 10.055,0 0,17.453 -10.055,0 0,-17.453 z" /><path
       id="path384"
       style="fill:#545659;fill-opacity:1;fill-rule:nonzero;stroke:none"
       d="m 67.729,408.659 10.055,0 0,35.55 -10.055,0 0,-35.55 z" /><path
       id="path386"
       style="fill:#545659;fill-opacity:1;fill-rule:nonzero;stroke:none"
       d="m 107.952,408.659 10.055,0 0,35.55 -10.055,0 0,-35.55 z" /><path
       id="path388"
       style="fill:#545659;fill-opacity:1;fill-rule:nonzero;stroke:none"
       d="m 148.174,408.659 10.055,0 0,24.238 -10.055,0 0,-24.238 z" /><path
       id="path390"
       style="fill:#545659;fill-opacity:1;fill-rule:nonzero;stroke:none"
       d="m 188.397,408.659 10.055,0 0,24.238 -10.055,0 0,-24.238 z" /><path
       id="path392"
       style="fill:#545659;fill-opacity:1;fill-rule:nonzero;stroke:none"
       d="m 228.62,408.659 10.055,0 0,19.391 -10.055,0 0,-19.391 z" /><path
       id="path394"
       style="fill:#545659;fill-opacity:1;fill-rule:nonzero;stroke:none"
       d="m 268.842,408.659 10.055,0 0,14.544 -10.055,0 0,-14.544 z" /><path
       id="path396"
       style="fill:#545659;fill-opacity:1;fill-rule:nonzero;stroke:none"
       d="m 309.065,408.659 10.055,0 0,11.312 -10.055,0 0,-11.312 z" /><path
       id="path398"
       style="fill:#545659;fill-opacity:1;fill-rule:nonzero;stroke:none"
       d="m 349.288,408.659 10.055,0 0,8.08 -10.055,0 0,-8.08 z" /><path
       id="path400"
       style="fill:#545659;fill-opacity:1;fill-rule:nonzero;stroke:none"
       d="m 389.51,408.659 10.055,0 0,8.08 -10.055,0 0,-8.08 z" /><path
       id="path402"
       style="fill:#545659;fill-opacity:1;fill-rule:nonzero;stroke:none"
       d="m 67.729,408.659 10.055,0 0,35.55 -10.055,0 0,-35.55 z" /><path
       id="path404"
       style="fill:#545659;fill-opacity:1;fill-rule:nonzero;stroke:none"
       d="m 268.842,408.659 10.055,0 0,14.544 -10.055,0 0,-14.544 z" /><path
       id="path406"
       style="fill:#545659;fill-opacity:1;fill-rule:nonzero;stroke:none"
       d="m 107.952,408.659 10.055,0 0,35.55 -10.055,0 0,-35.55 z" /><path
       id="path408"
       style="fill:#545659;fill-opacity:1;fill-rule:nonzero;stroke:none"
       d="m 148.174,408.659 10.055,0 0,24.238 -10.055,0 0,-24.238 z" /><path
       id="path410"
       style="fill:#545659;fill-opacity:1;fill-rule:nonzero;stroke:none"
       d="m 188.397,408.659 10.055,0 0,24.238 -10.055,0 0,-24.238 z" /><path
       id="path412"
       style="fill:#545659;fill-opacity:1;fill-rule:nonzero;stroke:none"
       d="m 228.62,408.659 10.055,0 0,19.391 -10.055,0 0,-19.391 z" /><path
       id="path414"
       style="fill:#545659;fill-opacity:1;fill-rule:nonzero;stroke:none"
       d="m 309.065,408.659 10.055,0 0,11.312 -10.055,0 0,-11.312 z" /><path
       id="path416"
       style="fill:#545659;fill-opacity:1;fill-rule:nonzero;stroke:none"
       d="m 349.288,408.659 10.055,0 0,8.08 -10.055,0 0,-8.08 z" /><path
       id="path418"
       style="fill:#545659;fill-opacity:1;fill-rule:nonzero;stroke:none"
       d="m 389.51,408.659 10.055,0 0,8.08 -10.055,0 0,-8.08 z" /><g
       transform="translate(62.7013,554.0879)"
       id="g420"><path
         id="path422"
         style="fill:none;stroke:#110f0d;stroke-width:1.02900004;stroke-linecap:round;stroke-linejoin:round;stroke-miterlimit:1.5;stroke-dasharray:none;stroke-opacity:1"
         d="M 0,0 362.004,0" /></g><g
       transform="translate(62.7013,408.6595)"
       id="g424"><path
         id="path426"
         style="fill:none;stroke:#110f0d;stroke-width:1.02900004;stroke-linecap:round;stroke-linejoin:round;stroke-miterlimit:1.5;stroke-dasharray:none;stroke-opacity:1"
         d="M 0,0 0,145.428" /></g><g
       transform="translate(424.7052,408.6595)"
       id="g428"><path
         id="path430"
         style="fill:none;stroke:#110f0d;stroke-width:1.02900004;stroke-linecap:round;stroke-linejoin:round;stroke-miterlimit:1.5;stroke-dasharray:none;stroke-opacity:1"
         d="M 0,0 0,145.428" /></g><g
       transform="translate(62.7013,408.6595)"
       id="g432"><path
         id="path434"
         style="fill:none;stroke:#110f0d;stroke-width:1.02900004;stroke-linecap:round;stroke-linejoin:round;stroke-miterlimit:1.5;stroke-dasharray:none;stroke-opacity:1"
         d="M 0,0 362.004,0" /></g></g></svg>