<?xml version="1.0" encoding="UTF-8" standalone="no"?>
<svg
   xmlns:dc="http://purl.org/dc/elements/1.1/"
   xmlns:cc="http://creativecommons.org/ns#"
   xmlns:rdf="http://www.w3.org/1999/02/22-rdf-syntax-ns#"
   xmlns:svg="http://www.w3.org/2000/svg"
   xmlns="http://www.w3.org/2000/svg"
   viewBox="0 0 474.1235 214.51498"
   height="214.51498"
   width="474.1235"
   xml:space="preserve"
   version="1.1"
   id="svg2"><metadata
     id="metadata8"><rdf:RDF><cc:Work
         rdf:about=""><dc:format>image/svg+xml</dc:format><dc:type
           rdf:resource="http://purl.org/dc/dcmitype/StillImage" /><dc:title></dc:title></cc:Work></rdf:RDF></metadata><defs
     id="defs6" /><g
     transform="matrix(1.25,0,0,-1.25,-57.238875,742.12687)"
     id="g10"><text
       id="text16"
       style="font-variant:normal;font-weight:500;font-stretch:normal;font-size:9px;font-family:Delicious;-inkscape-font-specification:Delicious-Roman;writing-mode:lr-tb;fill:#110f0d;fill-opacity:1;fill-rule:nonzero;stroke:none"
       transform="matrix(1,0,0,-1,61.1091,423.6735)"><tspan
         id="tspan18"
         y="0"
         x="0 4.0500002 8.1000004 12.15 16.200001 18.702 22.752001">1869–70</tspan><tspan
         id="tspan20"
         y="-163.66499"
         x="12.069 17.055 21.726 28.665001 33.192001 37.431 40.301998 43.001999 47.394001 49.967999 52.667999 56.448002 59.202 63.873001 68.481003 72.720001 77.390999 80.144997">Number of students</tspan><tspan
         id="tspan22"
         y="0"
         x="55.521 59.570999 63.620998 67.670998 71.721001 74.943001 78.992996 111.042 115.092 119.142 123.192 127.242 130.464 134.51401 166.563 170.61301 174.66299 178.713 182.763 185.265 189.315 222.084 226.134 230.18401 234.23399 238.284 241.506 245.556 277.60501 281.655 285.70499 289.755 293.80499 297.02701 301.077 333.12601 337.17599 341.22601 345.276 349.32599 352.548 356.59799">1884–851899–001914–151929–301944–451959–60</tspan><tspan
         id="tspan24"
         y="-13.131"
         x="-0.0089999996">0</tspan><tspan
         id="tspan26"
         y="-36.945"
         x="-12.159 -8.1090002 -4.059 -0.0089999996">2000</tspan><tspan
         id="tspan28"
         y="-60.758999"
         x="-12.159 -8.1090002 -4.059 -0.0089999996">4000</tspan><tspan
         id="tspan30"
         y="-84.572998"
         x="-12.159 -8.1090002 -4.059 -0.0089999996">6000</tspan><tspan
         id="tspan32"
         y="-108.387"
         x="-12.159 -8.1090002 -4.059 -0.0089999996">8000</tspan><tspan
         id="tspan34"
         y="-132.201"
         x="-16.209 -12.159 -8.1090002 -4.059 -0.0089999996">10000</tspan><tspan
         id="tspan36"
         y="-156.015"
         x="-16.209 -12.159 -8.1090002 -4.059 -0.0089999996">12000</tspan></text>
<g
       transform="translate(74.2134,509.6957)"
       id="g52"><path
         id="path54"
         style="fill:none;stroke:#918f90;stroke-width:0.5;stroke-linecap:round;stroke-linejoin:round;stroke-miterlimit:1.5;stroke-dasharray:none;stroke-opacity:1"
         d="M 0,0 350.376,0" /></g><g
       transform="translate(74.2134,461.9319)"
       id="g56"><path
         id="path58"
         style="fill:none;stroke:#918f90;stroke-width:0.5;stroke-linecap:round;stroke-linejoin:round;stroke-miterlimit:1.5;stroke-dasharray:none;stroke-opacity:1"
         d="M 0,0 350.376,0" /></g><g
       transform="translate(301.7754,438.049)"
       id="g60"><path
         id="path62"
         style="fill:none;stroke:#918f90;stroke-width:0.5;stroke-linecap:round;stroke-linejoin:round;stroke-miterlimit:1.5;stroke-dasharray:none;stroke-opacity:1"
         d="M 0,0 0,143.292" /></g><g
       transform="translate(312.6124,438.049)"
       id="g64"><path
         id="path66"
         style="fill:none;stroke:#918f90;stroke-width:0.5;stroke-linecap:round;stroke-linejoin:round;stroke-miterlimit:1.5;stroke-dasharray:none;stroke-opacity:1"
         d="M 0,0 0,143.292" /></g><g
       transform="translate(323.4493,438.049)"
       id="g68"><path
         id="path70"
         style="fill:none;stroke:#918f90;stroke-width:0.5;stroke-linecap:round;stroke-linejoin:round;stroke-miterlimit:1.5;stroke-dasharray:none;stroke-opacity:1"
         d="M 0,0 0,143.292" /></g><g
       transform="translate(334.2864,438.049)"
       id="g72"><path
         id="path74"
         style="fill:none;stroke:#918f90;stroke-width:0.5;stroke-linecap:round;stroke-linejoin:round;stroke-miterlimit:1.5;stroke-dasharray:none;stroke-opacity:1"
         d="M 0,0 0,143.292" /></g><g
       transform="translate(345.1196,438.049)"
       id="g76"><path
         id="path78"
         style="fill:none;stroke:#918f90;stroke-width:0.5;stroke-linecap:round;stroke-linejoin:round;stroke-miterlimit:1.5;stroke-dasharray:none;stroke-opacity:1"
         d="M 0,0 0,143.292" /></g><g
       transform="translate(355.9566,438.049)"
       id="g80"><path
         id="path82"
         style="fill:none;stroke:#918f90;stroke-width:0.5;stroke-linecap:round;stroke-linejoin:round;stroke-miterlimit:1.5;stroke-dasharray:none;stroke-opacity:1"
         d="M 0,0 0,143.292" /></g><g
       transform="translate(366.7936,438.049)"
       id="g84"><path
         id="path86"
         style="fill:none;stroke:#918f90;stroke-width:0.5;stroke-linecap:round;stroke-linejoin:round;stroke-miterlimit:1.5;stroke-dasharray:none;stroke-opacity:1"
         d="M 0,0 0,143.292" /></g><g
       transform="translate(377.6306,438.049)"
       id="g88"><path
         id="path90"
         style="fill:none;stroke:#918f90;stroke-width:0.5;stroke-linecap:round;stroke-linejoin:round;stroke-miterlimit:1.5;stroke-dasharray:none;stroke-opacity:1"
         d="M 0,0 0,143.292" /></g><g
       transform="translate(388.4676,438.049)"
       id="g92"><path
         id="path94"
         style="fill:none;stroke:#918f90;stroke-width:0.5;stroke-linecap:round;stroke-linejoin:round;stroke-miterlimit:1.5;stroke-dasharray:none;stroke-opacity:1"
         d="M 0,0 0,143.292" /></g><g
       transform="translate(399.3046,438.049)"
       id="g96"><path
         id="path98"
         style="fill:none;stroke:#918f90;stroke-width:0.5;stroke-linecap:round;stroke-linejoin:round;stroke-miterlimit:1.5;stroke-dasharray:none;stroke-opacity:1"
         d="M 0,0 0,143.292" /></g><g
       transform="translate(410.1378,438.049)"
       id="g100"><path
         id="path102"
         style="fill:none;stroke:#918f90;stroke-width:0.5;stroke-linecap:round;stroke-linejoin:round;stroke-miterlimit:1.5;stroke-dasharray:none;stroke-opacity:1"
         d="M 0,0 0,143.292" /></g><g
       transform="translate(420.9748,438.049)"
       id="g104"><path
         id="path106"
         style="fill:none;stroke:#918f90;stroke-width:0.5;stroke-linecap:round;stroke-linejoin:round;stroke-miterlimit:1.5;stroke-dasharray:none;stroke-opacity:1"
         d="M 0,0 0,143.292" /></g><g
       transform="translate(74.2134,485.8128)"
       id="g108"><path
         id="path110"
         style="fill:none;stroke:#918f90;stroke-width:0.5;stroke-linecap:round;stroke-linejoin:round;stroke-miterlimit:1.5;stroke-dasharray:none;stroke-opacity:1"
         d="M 0,0 350.376,0" /></g><g
       transform="translate(301.7754,435.0072)"
       id="g112"><path
         id="path114"
         style="fill:none;stroke:#918f90;stroke-width:0.5;stroke-linecap:round;stroke-linejoin:round;stroke-miterlimit:1.5;stroke-dasharray:none;stroke-opacity:1"
         d="M 0,0 0,3.042" /></g><g
       transform="translate(312.6124,435.0072)"
       id="g116"><path
         id="path118"
         style="fill:none;stroke:#918f90;stroke-width:0.5;stroke-linecap:round;stroke-linejoin:round;stroke-miterlimit:1.5;stroke-dasharray:none;stroke-opacity:1"
         d="M 0,0 0,3.042" /></g><g
       transform="translate(323.4493,435.0072)"
       id="g120"><path
         id="path122"
         style="fill:none;stroke:#918f90;stroke-width:0.5;stroke-linecap:round;stroke-linejoin:round;stroke-miterlimit:1.5;stroke-dasharray:none;stroke-opacity:1"
         d="M 0,0 0,3.042" /></g><g
       transform="translate(334.2864,435.0072)"
       id="g124"><path
         id="path126"
         style="fill:none;stroke:#918f90;stroke-width:0.5;stroke-linecap:round;stroke-linejoin:round;stroke-miterlimit:1.5;stroke-dasharray:none;stroke-opacity:1"
         d="M 0,0 0,3.042" /></g><g
       transform="translate(345.1196,435.0072)"
       id="g128"><path
         id="path130"
         style="fill:none;stroke:#918f90;stroke-width:0.5;stroke-linecap:round;stroke-linejoin:round;stroke-miterlimit:1.5;stroke-dasharray:none;stroke-opacity:1"
         d="M 0,0 0,3.042" /></g><g
       transform="translate(355.9566,435.0072)"
       id="g132"><path
         id="path134"
         style="fill:none;stroke:#918f90;stroke-width:0.5;stroke-linecap:round;stroke-linejoin:round;stroke-miterlimit:1.5;stroke-dasharray:none;stroke-opacity:1"
         d="M 0,0 0,3.042" /></g><g
       transform="translate(366.7936,435.0072)"
       id="g136"><path
         id="path138"
         style="fill:none;stroke:#918f90;stroke-width:0.5;stroke-linecap:round;stroke-linejoin:round;stroke-miterlimit:1.5;stroke-dasharray:none;stroke-opacity:1"
         d="M 0,0 0,3.042" /></g><g
       transform="translate(377.6306,435.0072)"
       id="g140"><path
         id="path142"
         style="fill:none;stroke:#918f90;stroke-width:0.5;stroke-linecap:round;stroke-linejoin:round;stroke-miterlimit:1.5;stroke-dasharray:none;stroke-opacity:1"
         d="M 0,0 0,3.042" /></g><g
       transform="translate(388.4676,435.0072)"
       id="g144"><path
         id="path146"
         style="fill:none;stroke:#918f90;stroke-width:0.5;stroke-linecap:round;stroke-linejoin:round;stroke-miterlimit:1.5;stroke-dasharray:none;stroke-opacity:1"
         d="M 0,0 0,3.042" /></g><g
       transform="translate(399.3046,435.0072)"
       id="g148"><path
         id="path150"
         style="fill:none;stroke:#918f90;stroke-width:0.5;stroke-linecap:round;stroke-linejoin:round;stroke-miterlimit:1.5;stroke-dasharray:none;stroke-opacity:1"
         d="M 0,0 0,3.042" /></g><g
       transform="translate(410.1378,435.0072)"
       id="g152"><path
         id="path154"
         style="fill:none;stroke:#918f90;stroke-width:0.5;stroke-linecap:round;stroke-linejoin:round;stroke-miterlimit:1.5;stroke-dasharray:none;stroke-opacity:1"
         d="M 0,0 0,3.042" /></g><g
       transform="translate(420.9748,435.0072)"
       id="g156"><path
         id="path158"
         style="fill:none;stroke:#918f90;stroke-width:0.5;stroke-linecap:round;stroke-linejoin:round;stroke-miterlimit:1.5;stroke-dasharray:none;stroke-opacity:1"
         d="M 0,0 0,3.042" /></g><g
       transform="translate(74.2134,533.5767)"
       id="g160"><path
         id="path162"
         style="fill:none;stroke:#918f90;stroke-width:0.5;stroke-linecap:round;stroke-linejoin:round;stroke-miterlimit:1.5;stroke-dasharray:none;stroke-opacity:1"
         d="M 0,0 350.376,0" /></g><g
       transform="translate(74.2134,557.4595)"
       id="g164"><path
         id="path166"
         style="fill:none;stroke:#918f90;stroke-width:0.5;stroke-linecap:round;stroke-linejoin:round;stroke-miterlimit:1.5;stroke-dasharray:none;stroke-opacity:1"
         d="M 0,0 350.376,0" /></g><g
       transform="translate(85.0466,438.049)"
       id="g168"><path
         id="path170"
         style="fill:none;stroke:#918f90;stroke-width:0.5;stroke-linecap:round;stroke-linejoin:round;stroke-miterlimit:1.5;stroke-dasharray:none;stroke-opacity:1"
         d="M 0,0 0,143.292" /></g><g
       transform="translate(95.8836,438.049)"
       id="g172"><path
         id="path174"
         style="fill:none;stroke:#918f90;stroke-width:0.5;stroke-linecap:round;stroke-linejoin:round;stroke-miterlimit:1.5;stroke-dasharray:none;stroke-opacity:1"
         d="M 0,0 0,143.292" /></g><g
       transform="translate(106.7206,438.049)"
       id="g176"><path
         id="path178"
         style="fill:none;stroke:#918f90;stroke-width:0.5;stroke-linecap:round;stroke-linejoin:round;stroke-miterlimit:1.5;stroke-dasharray:none;stroke-opacity:1"
         d="M 0,0 0,143.292" /></g><g
       transform="translate(117.5576,438.049)"
       id="g180"><path
         id="path182"
         style="fill:none;stroke:#918f90;stroke-width:0.5;stroke-linecap:round;stroke-linejoin:round;stroke-miterlimit:1.5;stroke-dasharray:none;stroke-opacity:1"
         d="M 0,0 0,143.292" /></g><g
       transform="translate(128.3946,438.049)"
       id="g184"><path
         id="path186"
         style="fill:none;stroke:#918f90;stroke-width:0.5;stroke-linecap:round;stroke-linejoin:round;stroke-miterlimit:1.5;stroke-dasharray:none;stroke-opacity:1"
         d="M 0,0 0,143.292" /></g><g
       transform="translate(139.2316,438.049)"
       id="g188"><path
         id="path190"
         style="fill:none;stroke:#918f90;stroke-width:0.5;stroke-linecap:round;stroke-linejoin:round;stroke-miterlimit:1.5;stroke-dasharray:none;stroke-opacity:1"
         d="M 0,0 0,143.292" /></g><g
       transform="translate(68.381,461.9319)"
       id="g192"><path
         id="path194"
         style="fill:none;stroke:#918f90;stroke-width:0.5;stroke-linecap:round;stroke-linejoin:round;stroke-miterlimit:1.5;stroke-dasharray:none;stroke-opacity:1"
         d="M 0,0 5.832,0" /></g><g
       transform="translate(68.381,485.8128)"
       id="g196"><path
         id="path198"
         style="fill:none;stroke:#918f90;stroke-width:0.5;stroke-linecap:round;stroke-linejoin:round;stroke-miterlimit:1.5;stroke-dasharray:none;stroke-opacity:1"
         d="M 0,0 5.832,0" /></g><g
       transform="translate(68.381,509.6957)"
       id="g200"><path
         id="path202"
         style="fill:none;stroke:#918f90;stroke-width:0.5;stroke-linecap:round;stroke-linejoin:round;stroke-miterlimit:1.5;stroke-dasharray:none;stroke-opacity:1"
         d="M 0,0 5.832,0" /></g><g
       transform="translate(68.381,533.5767)"
       id="g204"><path
         id="path206"
         style="fill:none;stroke:#918f90;stroke-width:0.5;stroke-linecap:round;stroke-linejoin:round;stroke-miterlimit:1.5;stroke-dasharray:none;stroke-opacity:1"
         d="M 0,0 5.832,0" /></g><g
       transform="translate(68.381,557.4595)"
       id="g208"><path
         id="path210"
         style="fill:none;stroke:#918f90;stroke-width:0.5;stroke-linecap:round;stroke-linejoin:round;stroke-miterlimit:1.5;stroke-dasharray:none;stroke-opacity:1"
         d="M 0,0 5.832,0" /></g><g
       transform="translate(68.381,581.3405)"
       id="g212"><path
         id="path214"
         style="fill:none;stroke:#918f90;stroke-width:0.5;stroke-linecap:round;stroke-linejoin:round;stroke-miterlimit:1.5;stroke-dasharray:none;stroke-opacity:1"
         d="M 0,0 5.832,0" /></g><g
       transform="translate(71.2972,461.9319)"
       id="g216"><path
         id="path218"
         style="fill:none;stroke:#918f90;stroke-width:0.5;stroke-linecap:round;stroke-linejoin:round;stroke-miterlimit:1.5;stroke-dasharray:none;stroke-opacity:1"
         d="M 0,0 2.916,0" /></g><g
       transform="translate(71.2972,485.8128)"
       id="g220"><path
         id="path222"
         style="fill:none;stroke:#918f90;stroke-width:0.5;stroke-linecap:round;stroke-linejoin:round;stroke-miterlimit:1.5;stroke-dasharray:none;stroke-opacity:1"
         d="M 0,0 2.916,0" /></g><g
       transform="translate(71.2972,509.6957)"
       id="g224"><path
         id="path226"
         style="fill:none;stroke:#918f90;stroke-width:0.5;stroke-linecap:round;stroke-linejoin:round;stroke-miterlimit:1.5;stroke-dasharray:none;stroke-opacity:1"
         d="M 0,0 2.916,0" /></g><g
       transform="translate(71.2972,533.5767)"
       id="g228"><path
         id="path230"
         style="fill:none;stroke:#918f90;stroke-width:0.5;stroke-linecap:round;stroke-linejoin:round;stroke-miterlimit:1.5;stroke-dasharray:none;stroke-opacity:1"
         d="M 0,0 2.916,0" /></g><g
       transform="translate(71.2972,557.4595)"
       id="g232"><path
         id="path234"
         style="fill:none;stroke:#918f90;stroke-width:0.5;stroke-linecap:round;stroke-linejoin:round;stroke-miterlimit:1.5;stroke-dasharray:none;stroke-opacity:1"
         d="M 0,0 2.916,0" /></g><g
       transform="translate(71.2972,581.3405)"
       id="g236"><path
         id="path238"
         style="fill:none;stroke:#918f90;stroke-width:0.5;stroke-linecap:round;stroke-linejoin:round;stroke-miterlimit:1.5;stroke-dasharray:none;stroke-opacity:1"
         d="M 0,0 2.916,0" /></g><g
       transform="translate(150.0648,438.049)"
       id="g240"><path
         id="path242"
         style="fill:none;stroke:#918f90;stroke-width:0.5;stroke-linecap:round;stroke-linejoin:round;stroke-miterlimit:1.5;stroke-dasharray:none;stroke-opacity:1"
         d="M 0,0 0,143.292" /></g><g
       transform="translate(160.9019,438.049)"
       id="g244"><path
         id="path246"
         style="fill:none;stroke:#918f90;stroke-width:0.5;stroke-linecap:round;stroke-linejoin:round;stroke-miterlimit:1.5;stroke-dasharray:none;stroke-opacity:1"
         d="M 0,0 0,143.292" /></g><g
       transform="translate(171.7389,438.049)"
       id="g248"><path
         id="path250"
         style="fill:none;stroke:#918f90;stroke-width:0.5;stroke-linecap:round;stroke-linejoin:round;stroke-miterlimit:1.5;stroke-dasharray:none;stroke-opacity:1"
         d="M 0,0 0,143.292" /></g><g
       transform="translate(182.5759,438.049)"
       id="g252"><path
         id="path254"
         style="fill:none;stroke:#918f90;stroke-width:0.5;stroke-linecap:round;stroke-linejoin:round;stroke-miterlimit:1.5;stroke-dasharray:none;stroke-opacity:1"
         d="M 0,0 0,143.292" /></g><g
       transform="translate(193.4129,438.049)"
       id="g256"><path
         id="path258"
         style="fill:none;stroke:#918f90;stroke-width:0.5;stroke-linecap:round;stroke-linejoin:round;stroke-miterlimit:1.5;stroke-dasharray:none;stroke-opacity:1"
         d="M 0,0 0,143.292" /></g><g
       transform="translate(204.2499,438.049)"
       id="g260"><path
         id="path262"
         style="fill:none;stroke:#918f90;stroke-width:0.5;stroke-linecap:round;stroke-linejoin:round;stroke-miterlimit:1.5;stroke-dasharray:none;stroke-opacity:1"
         d="M 0,0 0,143.292" /></g><g
       transform="translate(215.0831,438.049)"
       id="g264"><path
         id="path266"
         style="fill:none;stroke:#918f90;stroke-width:0.5;stroke-linecap:round;stroke-linejoin:round;stroke-miterlimit:1.5;stroke-dasharray:none;stroke-opacity:1"
         d="M 0,0 0,143.292" /></g><g
       transform="translate(225.9201,438.049)"
       id="g268"><path
         id="path270"
         style="fill:none;stroke:#918f90;stroke-width:0.5;stroke-linecap:round;stroke-linejoin:round;stroke-miterlimit:1.5;stroke-dasharray:none;stroke-opacity:1"
         d="M 0,0 0,143.292" /></g><g
       transform="translate(236.7571,438.049)"
       id="g272"><path
         id="path274"
         style="fill:none;stroke:#918f90;stroke-width:0.5;stroke-linecap:round;stroke-linejoin:round;stroke-miterlimit:1.5;stroke-dasharray:none;stroke-opacity:1"
         d="M 0,0 0,143.292" /></g><g
       transform="translate(247.5941,438.049)"
       id="g276"><path
         id="path278"
         style="fill:none;stroke:#918f90;stroke-width:0.5;stroke-linecap:round;stroke-linejoin:round;stroke-miterlimit:1.5;stroke-dasharray:none;stroke-opacity:1"
         d="M 0,0 0,143.292" /></g><g
       transform="translate(258.4311,438.049)"
       id="g280"><path
         id="path282"
         style="fill:none;stroke:#918f90;stroke-width:0.5;stroke-linecap:round;stroke-linejoin:round;stroke-miterlimit:1.5;stroke-dasharray:none;stroke-opacity:1"
         d="M 0,0 0,143.292" /></g><g
       transform="translate(269.2681,438.049)"
       id="g284"><path
         id="path286"
         style="fill:none;stroke:#918f90;stroke-width:0.5;stroke-linecap:round;stroke-linejoin:round;stroke-miterlimit:1.5;stroke-dasharray:none;stroke-opacity:1"
         d="M 0,0 0,143.292" /></g><g
       transform="translate(280.1014,438.049)"
       id="g288"><path
         id="path290"
         style="fill:none;stroke:#918f90;stroke-width:0.5;stroke-linecap:round;stroke-linejoin:round;stroke-miterlimit:1.5;stroke-dasharray:none;stroke-opacity:1"
         d="M 0,0 0,143.292" /></g><g
       transform="translate(290.9383,438.049)"
       id="g292"><path
         id="path294"
         style="fill:none;stroke:#918f90;stroke-width:0.5;stroke-linecap:round;stroke-linejoin:round;stroke-miterlimit:1.5;stroke-dasharray:none;stroke-opacity:1"
         d="M 0,0 0,143.292" /></g><g
       transform="translate(74.2134,435.0072)"
       id="g296"><path
         id="path298"
         style="fill:none;stroke:#918f90;stroke-width:0.5;stroke-linecap:round;stroke-linejoin:round;stroke-miterlimit:1.5;stroke-dasharray:none;stroke-opacity:1"
         d="M 0,0 0,3.042" /></g><g
       transform="translate(85.0466,435.0072)"
       id="g300"><path
         id="path302"
         style="fill:none;stroke:#918f90;stroke-width:0.5;stroke-linecap:round;stroke-linejoin:round;stroke-miterlimit:1.5;stroke-dasharray:none;stroke-opacity:1"
         d="M 0,0 0,3.042" /></g><g
       transform="translate(95.8836,435.0072)"
       id="g304"><path
         id="path306"
         style="fill:none;stroke:#918f90;stroke-width:0.5;stroke-linecap:round;stroke-linejoin:round;stroke-miterlimit:1.5;stroke-dasharray:none;stroke-opacity:1"
         d="M 0,0 0,3.042" /></g><g
       transform="translate(106.7206,435.0072)"
       id="g308"><path
         id="path310"
         style="fill:none;stroke:#918f90;stroke-width:0.5;stroke-linecap:round;stroke-linejoin:round;stroke-miterlimit:1.5;stroke-dasharray:none;stroke-opacity:1"
         d="M 0,0 0,3.042" /></g><g
       transform="translate(117.5576,435.0072)"
       id="g312"><path
         id="path314"
         style="fill:none;stroke:#918f90;stroke-width:0.5;stroke-linecap:round;stroke-linejoin:round;stroke-miterlimit:1.5;stroke-dasharray:none;stroke-opacity:1"
         d="M 0,0 0,3.042" /></g><g
       transform="translate(128.3946,435.0072)"
       id="g316"><path
         id="path318"
         style="fill:none;stroke:#918f90;stroke-width:0.5;stroke-linecap:round;stroke-linejoin:round;stroke-miterlimit:1.5;stroke-dasharray:none;stroke-opacity:1"
         d="M 0,0 0,3.042" /></g><g
       transform="translate(139.2316,435.0072)"
       id="g320"><path
         id="path322"
         style="fill:none;stroke:#918f90;stroke-width:0.5;stroke-linecap:round;stroke-linejoin:round;stroke-miterlimit:1.5;stroke-dasharray:none;stroke-opacity:1"
         d="M 0,0 0,3.042" /></g><g
       transform="translate(150.0648,435.0072)"
       id="g324"><path
         id="path326"
         style="fill:none;stroke:#918f90;stroke-width:0.5;stroke-linecap:round;stroke-linejoin:round;stroke-miterlimit:1.5;stroke-dasharray:none;stroke-opacity:1"
         d="M 0,0 0,3.042" /></g><g
       transform="translate(160.9019,435.0072)"
       id="g328"><path
         id="path330"
         style="fill:none;stroke:#918f90;stroke-width:0.5;stroke-linecap:round;stroke-linejoin:round;stroke-miterlimit:1.5;stroke-dasharray:none;stroke-opacity:1"
         d="M 0,0 0,3.042" /></g><g
       transform="translate(171.7389,435.0072)"
       id="g332"><path
         id="path334"
         style="fill:none;stroke:#918f90;stroke-width:0.5;stroke-linecap:round;stroke-linejoin:round;stroke-miterlimit:1.5;stroke-dasharray:none;stroke-opacity:1"
         d="M 0,0 0,3.042" /></g><g
       transform="translate(182.5759,435.0072)"
       id="g336"><path
         id="path338"
         style="fill:none;stroke:#918f90;stroke-width:0.5;stroke-linecap:round;stroke-linejoin:round;stroke-miterlimit:1.5;stroke-dasharray:none;stroke-opacity:1"
         d="M 0,0 0,3.042" /></g><g
       transform="translate(193.4129,435.0072)"
       id="g340"><path
         id="path342"
         style="fill:none;stroke:#918f90;stroke-width:0.5;stroke-linecap:round;stroke-linejoin:round;stroke-miterlimit:1.5;stroke-dasharray:none;stroke-opacity:1"
         d="M 0,0 0,3.042" /></g><g
       transform="translate(204.2499,435.0072)"
       id="g344"><path
         id="path346"
         style="fill:none;stroke:#918f90;stroke-width:0.5;stroke-linecap:round;stroke-linejoin:round;stroke-miterlimit:1.5;stroke-dasharray:none;stroke-opacity:1"
         d="M 0,0 0,3.042" /></g><g
       transform="translate(215.0831,435.0072)"
       id="g348"><path
         id="path350"
         style="fill:none;stroke:#918f90;stroke-width:0.5;stroke-linecap:round;stroke-linejoin:round;stroke-miterlimit:1.5;stroke-dasharray:none;stroke-opacity:1"
         d="M 0,0 0,3.042" /></g><g
       transform="translate(225.9201,435.0072)"
       id="g352"><path
         id="path354"
         style="fill:none;stroke:#918f90;stroke-width:0.5;stroke-linecap:round;stroke-linejoin:round;stroke-miterlimit:1.5;stroke-dasharray:none;stroke-opacity:1"
         d="M 0,0 0,3.042" /></g><g
       transform="translate(236.7571,435.0072)"
       id="g356"><path
         id="path358"
         style="fill:none;stroke:#918f90;stroke-width:0.5;stroke-linecap:round;stroke-linejoin:round;stroke-miterlimit:1.5;stroke-dasharray:none;stroke-opacity:1"
         d="M 0,0 0,3.042" /></g><g
       transform="translate(247.5941,435.0072)"
       id="g360"><path
         id="path362"
         style="fill:none;stroke:#918f90;stroke-width:0.5;stroke-linecap:round;stroke-linejoin:round;stroke-miterlimit:1.5;stroke-dasharray:none;stroke-opacity:1"
         d="M 0,0 0,3.042" /></g><g
       transform="translate(258.4311,435.0072)"
       id="g364"><path
         id="path366"
         style="fill:none;stroke:#918f90;stroke-width:0.5;stroke-linecap:round;stroke-linejoin:round;stroke-miterlimit:1.5;stroke-dasharray:none;stroke-opacity:1"
         d="M 0,0 0,3.042" /></g><g
       transform="translate(269.2681,435.0072)"
       id="g368"><path
         id="path370"
         style="fill:none;stroke:#918f90;stroke-width:0.5;stroke-linecap:round;stroke-linejoin:round;stroke-miterlimit:1.5;stroke-dasharray:none;stroke-opacity:1"
         d="M 0,0 0,3.042" /></g><g
       transform="translate(280.1014,435.0072)"
       id="g372"><path
         id="path374"
         style="fill:none;stroke:#918f90;stroke-width:0.5;stroke-linecap:round;stroke-linejoin:round;stroke-miterlimit:1.5;stroke-dasharray:none;stroke-opacity:1"
         d="M 0,0 0,3.042" /></g><g
       transform="translate(290.9383,435.0072)"
       id="g376"><path
         id="path378"
         style="fill:none;stroke:#918f90;stroke-width:0.5;stroke-linecap:round;stroke-linejoin:round;stroke-miterlimit:1.5;stroke-dasharray:none;stroke-opacity:1"
         d="M 0,0 0,3.042" /></g><g
       transform="translate(68.381,438.049)"
       id="g380"><path
         id="path382"
         style="fill:none;stroke:#918f90;stroke-width:0.5;stroke-linecap:round;stroke-linejoin:round;stroke-miterlimit:1.5;stroke-dasharray:none;stroke-opacity:1"
         d="M 0,0 5.832,0" /></g><g
       transform="translate(71.2972,438.049)"
       id="g384"><path
         id="path386"
         style="fill:none;stroke:#918f90;stroke-width:0.5;stroke-linecap:round;stroke-linejoin:round;stroke-miterlimit:1.5;stroke-dasharray:none;stroke-opacity:1"
         d="M 0,0 2.916,0" /></g><g
       transform="translate(424.5899,438.0485)"
       id="g388"><path
         id="path390"
         style="fill:none;stroke:#110f0d;stroke-width:1;stroke-linecap:round;stroke-linejoin:round;stroke-miterlimit:1.5;stroke-dasharray:none;stroke-opacity:1"
         d="m 0,0 -350.376,0 0,143.292 L 0,143.292 0,0 Z" /></g><g
       transform="translate(422.7822,535.763)"
       id="g392"><path
         id="path394"
         style="fill:none;stroke:#110f0d;stroke-width:1;stroke-linecap:round;stroke-linejoin:round;stroke-miterlimit:1.5;stroke-dasharray:none;stroke-opacity:1"
         d="m 0,0 -3.611,9.207 -3.615,6.053 -3.611,-9.541 -3.611,-3.236 -3.615,6.161 -3.611,26.511 -3.611,-9.411 -3.611,4.573 -3.615,9.757 -3.611,-13.9 -3.611,1.505 -3.611,7.032 -3.615,-11.678 -3.611,-3.2 -3.611,-5.814 -3.615,-0.489 -3.611,0.62 -3.611,-4.561 -3.611,3.796 -3.615,-1.85 -3.611,-3.392 -3.611,-1.624 -3.615,1.206 -3.611,0.119 -3.611,-0.786 -3.611,3.02 -3.615,1.816 -3.611,0.644 -3.611,-2.306 -3.611,-1.6 -3.615,-2.35 -3.611,-1.351 -3.611,-1.564 -3.615,-3.009 -3.611,-4.562 -3.611,-6.316 -3.611,-2.711 -3.615,-3.343 -3.611,-1.839 -3.612,-3.749 -3.614,-3.535 -3.611,-4.275 -3.612,-3.892 -3.611,-3.763 -3.614,-2.972 -3.612,-0.764 -3.611,-0.943 -3.611,0.62 -3.615,-2.054 -3.611,1.683 -3.611,-3.081 -3.615,-3.903 -3.611,-2.282 -3.611,0.228 -3.611,-0.74 -3.615,-0.012 -3.611,1.277 -3.611,-0.204 -3.615,-2.113 -3.611,-0.382 -3.611,-1.085 -3.611,-1.256 -3.615,0.562 -3.611,-1.099 -3.611,-0.311 -3.615,-2.029 -3.611,-2.03 -3.611,0.418 -3.611,-3.654 -3.615,-3.761 -3.611,-1.612 -3.611,-3.964 -3.611,-2.329 -3.615,-2.401 -3.611,-1.742 -3.611,-2.557 -3.615,-3.426 -3.611,-3.105 -3.611,-3.905 -3.611,-0.036 -3.615,0.048 -3.611,0.239 -3.611,-0.622 -3.615,0.658 -3.611,0.047 -3.611,0.24 -3.611,-0.263 -3.615,1.552 -3.611,-3.535 -3.611,0.036 -3.611,-0.608 -3.615,-1.265 -3.611,-0.062 -3.611,-0.035 -3.615,0.061 -3.611,-0.133" /></g></g></svg>