<?xml version="1.0" encoding="UTF-8" standalone="no"?>
<svg
   xmlns:dc="http://purl.org/dc/elements/1.1/"
   xmlns:cc="http://creativecommons.org/ns#"
   xmlns:rdf="http://www.w3.org/1999/02/22-rdf-syntax-ns#"
   xmlns:svg="http://www.w3.org/2000/svg"
   xmlns="http://www.w3.org/2000/svg"
   viewBox="0 0 469.92868 216.66258"
   height="216.66258"
   width="469.92868"
   xml:space="preserve"
   version="1.1"
   id="svg2"><metadata
     id="metadata8"><rdf:RDF><cc:Work
         rdf:about=""><dc:format>image/svg+xml</dc:format><dc:type
           rdf:resource="http://purl.org/dc/dcmitype/StillImage" /><dc:title></dc:title></cc:Work></rdf:RDF></metadata><defs
     id="defs6" /><g
     transform="matrix(1.25,0,0,-1.25,-56.452438,407.37379)"
     id="g10"><text
       id="text396"
       style="font-variant:normal;font-weight:500;font-stretch:normal;font-size:9.09000015px;font-family:Delicious;-inkscape-font-specification:Delicious-Roman;writing-mode:lr-tb;fill:#110f0d;fill-opacity:1;fill-rule:nonzero;stroke:none"
       transform="matrix(1,0,0,-1,65.6669,319.4724)"><tspan
         id="tspan398"
         y="0"
         x="0 5.0358601 9.7535696 16.761959 21.33423 25.61562 28.515329 31.242331 35.678249 38.277988 41.00499 44.822788 48.567871 53.28558 57.7215 62.157421 64.302658 68.120461 70.847458 75.083397 79.801109 84.455193 87.18219 90.081902 94.363289 98.181091 100.34451 104.99859 109.27998 113.99769 117.74277 122.02416">Number of schools and residences</tspan><tspan
         id="tspan400"
         y="152.03934"
         x="-13.19868">0</tspan></text>
<text
       id="text416"
       style="font-variant:normal;font-weight:500;font-stretch:normal;font-size:9.09000015px;font-family:Delicious;-inkscape-font-specification:Delicious-Roman;writing-mode:lr-tb;fill:#110f0d;fill-opacity:1;fill-rule:nonzero;stroke:none"
       transform="matrix(1,0,0,-1,58.6606,154.1688)"><tspan
         id="tspan418"
         y="0"
         x="0 4.0904999 8.1809998 12.2715 53.69463 57.78513 61.875629 65.966133 107.38926 111.47976 115.57026 119.66076 161.08389 165.17439 169.26489 173.35539 214.77852 218.86902 222.95952 227.05002 268.47314 272.56366 276.65414 280.74466 322.16779 326.25827 330.34879 334.43927">1867188719071927194719671987</tspan><tspan
         id="tspan420"
         y="-27.5427"
         x="-10.30806 -6.2175598">10</tspan><tspan
         id="tspan422"
         y="-41.82309"
         x="-10.30806 -6.2175598">20</tspan><tspan
         id="tspan424"
         y="-56.103481"
         x="-10.30806 -6.2175598">30</tspan><tspan
         id="tspan426"
         y="-70.383873"
         x="-10.30806 -6.2175598">40</tspan><tspan
         id="tspan428"
         y="-84.664261"
         x="-10.30806 -6.2175598">50</tspan><tspan
         id="tspan430"
         y="-98.944649"
         x="-10.30806 -6.2175598">60</tspan><tspan
         id="tspan432"
         y="-113.22504"
         x="-10.30806 -6.2175598">70</tspan><tspan
         id="tspan434"
         y="-127.50543"
         x="-10.30806 -6.2175598">80</tspan><tspan
         id="tspan436"
         y="-141.78581"
         x="-10.30806 -6.2175598">90</tspan><tspan
         id="tspan438"
         y="-156.06621"
         x="-14.39856 -10.30806 -6.2175598">100</tspan></text>
<g
       transform="translate(79.0066,169.6749)"
       id="g440"><path
         id="path442"
         style="fill:none;stroke:#918f90;stroke-width:0.505;stroke-linecap:round;stroke-linejoin:round;stroke-miterlimit:1.5;stroke-dasharray:none;stroke-opacity:1"
         d="M 0,0 0,143.737" /></g><g
       transform="translate(89.6794,169.6749)"
       id="g444"><path
         id="path446"
         style="fill:none;stroke:#918f90;stroke-width:0.505;stroke-linecap:round;stroke-linejoin:round;stroke-miterlimit:1.5;stroke-dasharray:none;stroke-opacity:1"
         d="M 0,0 0,143.737" /></g><g
       transform="translate(100.3569,169.6749)"
       id="g448"><path
         id="path450"
         style="fill:none;stroke:#918f90;stroke-width:0.505;stroke-linecap:round;stroke-linejoin:round;stroke-miterlimit:1.5;stroke-dasharray:none;stroke-opacity:1"
         d="M 0,0 0,143.737" /></g><g
       transform="translate(111.0297,169.6749)"
       id="g452"><path
         id="path454"
         style="fill:none;stroke:#918f90;stroke-width:0.505;stroke-linecap:round;stroke-linejoin:round;stroke-miterlimit:1.5;stroke-dasharray:none;stroke-opacity:1"
         d="M 0,0 0,143.737" /></g><g
       transform="translate(121.7025,169.6749)"
       id="g456"><path
         id="path458"
         style="fill:none;stroke:#918f90;stroke-width:0.505;stroke-linecap:round;stroke-linejoin:round;stroke-miterlimit:1.5;stroke-dasharray:none;stroke-opacity:1"
         d="M 0,0 0,143.737" /></g><g
       transform="translate(132.3801,169.6749)"
       id="g460"><path
         id="path462"
         style="fill:none;stroke:#918f90;stroke-width:0.505;stroke-linecap:round;stroke-linejoin:round;stroke-miterlimit:1.5;stroke-dasharray:none;stroke-opacity:1"
         d="M 0,0 0,143.737" /></g><g
       transform="translate(143.0528,169.6749)"
       id="g464"><path
         id="path466"
         style="fill:none;stroke:#918f90;stroke-width:0.505;stroke-linecap:round;stroke-linejoin:round;stroke-miterlimit:1.5;stroke-dasharray:none;stroke-opacity:1"
         d="M 0,0 0,143.737" /></g><g
       transform="translate(153.7256,169.6749)"
       id="g468"><path
         id="path470"
         style="fill:none;stroke:#918f90;stroke-width:0.505;stroke-linecap:round;stroke-linejoin:round;stroke-miterlimit:1.5;stroke-dasharray:none;stroke-opacity:1"
         d="M 0,0 0,143.737" /></g><g
       transform="translate(164.4032,169.6749)"
       id="g472"><path
         id="path474"
         style="fill:none;stroke:#918f90;stroke-width:0.505;stroke-linecap:round;stroke-linejoin:round;stroke-miterlimit:1.5;stroke-dasharray:none;stroke-opacity:1"
         d="M 0,0 0,143.737" /></g><g
       transform="translate(175.076,169.6749)"
       id="g476"><path
         id="path478"
         style="fill:none;stroke:#918f90;stroke-width:0.505;stroke-linecap:round;stroke-linejoin:round;stroke-miterlimit:1.5;stroke-dasharray:none;stroke-opacity:1"
         d="M 0,0 0,143.737" /></g><g
       transform="translate(185.7534,169.6749)"
       id="g480"><path
         id="path482"
         style="fill:none;stroke:#918f90;stroke-width:0.505;stroke-linecap:round;stroke-linejoin:round;stroke-miterlimit:1.5;stroke-dasharray:none;stroke-opacity:1"
         d="M 0,0 0,143.737" /></g><g
       transform="translate(196.4263,169.6749)"
       id="g484"><path
         id="path486"
         style="fill:none;stroke:#918f90;stroke-width:0.505;stroke-linecap:round;stroke-linejoin:round;stroke-miterlimit:1.5;stroke-dasharray:none;stroke-opacity:1"
         d="M 0,0 0,143.737" /></g><g
       transform="translate(207.099,169.6749)"
       id="g488"><path
         id="path490"
         style="fill:none;stroke:#918f90;stroke-width:0.505;stroke-linecap:round;stroke-linejoin:round;stroke-miterlimit:1.5;stroke-dasharray:none;stroke-opacity:1"
         d="M 0,0 0,143.737" /></g><g
       transform="translate(217.7765,169.6749)"
       id="g492"><path
         id="path494"
         style="fill:none;stroke:#918f90;stroke-width:0.505;stroke-linecap:round;stroke-linejoin:round;stroke-miterlimit:1.5;stroke-dasharray:none;stroke-opacity:1"
         d="M 0,0 0,143.737" /></g><g
       transform="translate(228.4493,169.6749)"
       id="g496"><path
         id="path498"
         style="fill:none;stroke:#918f90;stroke-width:0.505;stroke-linecap:round;stroke-linejoin:round;stroke-miterlimit:1.5;stroke-dasharray:none;stroke-opacity:1"
         d="M 0,0 0,143.737" /></g><g
       transform="translate(239.1222,169.6749)"
       id="g500"><path
         id="path502"
         style="fill:none;stroke:#918f90;stroke-width:0.505;stroke-linecap:round;stroke-linejoin:round;stroke-miterlimit:1.5;stroke-dasharray:none;stroke-opacity:1"
         d="M 0,0 0,143.737" /></g><g
       transform="translate(249.7996,169.6749)"
       id="g504"><path
         id="path506"
         style="fill:none;stroke:#918f90;stroke-width:0.505;stroke-linecap:round;stroke-linejoin:round;stroke-miterlimit:1.5;stroke-dasharray:none;stroke-opacity:1"
         d="M 0,0 0,143.737" /></g><g
       transform="translate(260.4725,169.6749)"
       id="g508"><path
         id="path510"
         style="fill:none;stroke:#918f90;stroke-width:0.505;stroke-linecap:round;stroke-linejoin:round;stroke-miterlimit:1.5;stroke-dasharray:none;stroke-opacity:1"
         d="M 0,0 0,143.737" /></g><g
       transform="translate(271.1453,169.6749)"
       id="g512"><path
         id="path514"
         style="fill:none;stroke:#918f90;stroke-width:0.505;stroke-linecap:round;stroke-linejoin:round;stroke-miterlimit:1.5;stroke-dasharray:none;stroke-opacity:1"
         d="M 0,0 0,143.737" /></g><g
       transform="translate(281.8229,169.6749)"
       id="g516"><path
         id="path518"
         style="fill:none;stroke:#918f90;stroke-width:0.505;stroke-linecap:round;stroke-linejoin:round;stroke-miterlimit:1.5;stroke-dasharray:none;stroke-opacity:1"
         d="M 0,0 0,143.737" /></g><g
       transform="translate(292.4957,169.6749)"
       id="g520"><path
         id="path522"
         style="fill:none;stroke:#918f90;stroke-width:0.505;stroke-linecap:round;stroke-linejoin:round;stroke-miterlimit:1.5;stroke-dasharray:none;stroke-opacity:1"
         d="M 0,0 0,143.737" /></g><g
       transform="translate(303.1731,169.6749)"
       id="g524"><path
         id="path526"
         style="fill:none;stroke:#918f90;stroke-width:0.505;stroke-linecap:round;stroke-linejoin:round;stroke-miterlimit:1.5;stroke-dasharray:none;stroke-opacity:1"
         d="M 0,0 0,143.737" /></g><g
       transform="translate(313.8459,169.6749)"
       id="g528"><path
         id="path530"
         style="fill:none;stroke:#918f90;stroke-width:0.505;stroke-linecap:round;stroke-linejoin:round;stroke-miterlimit:1.5;stroke-dasharray:none;stroke-opacity:1"
         d="M 0,0 0,143.737" /></g><g
       transform="translate(324.5187,169.6749)"
       id="g532"><path
         id="path534"
         style="fill:none;stroke:#918f90;stroke-width:0.505;stroke-linecap:round;stroke-linejoin:round;stroke-miterlimit:1.5;stroke-dasharray:none;stroke-opacity:1"
         d="M 0,0 0,143.737" /></g><g
       transform="translate(335.1962,169.6749)"
       id="g536"><path
         id="path538"
         style="fill:none;stroke:#918f90;stroke-width:0.505;stroke-linecap:round;stroke-linejoin:round;stroke-miterlimit:1.5;stroke-dasharray:none;stroke-opacity:1"
         d="M 0,0 0,143.737" /></g><g
       transform="translate(345.869,169.6749)"
       id="g540"><path
         id="path542"
         style="fill:none;stroke:#918f90;stroke-width:0.505;stroke-linecap:round;stroke-linejoin:round;stroke-miterlimit:1.5;stroke-dasharray:none;stroke-opacity:1"
         d="M 0,0 0,143.737" /></g><g
       transform="translate(356.5419,169.6749)"
       id="g544"><path
         id="path546"
         style="fill:none;stroke:#918f90;stroke-width:0.505;stroke-linecap:round;stroke-linejoin:round;stroke-miterlimit:1.5;stroke-dasharray:none;stroke-opacity:1"
         d="M 0,0 0,143.737" /></g><g
       transform="translate(367.2194,169.6749)"
       id="g548"><path
         id="path550"
         style="fill:none;stroke:#918f90;stroke-width:0.505;stroke-linecap:round;stroke-linejoin:round;stroke-miterlimit:1.5;stroke-dasharray:none;stroke-opacity:1"
         d="M 0,0 0,143.737" /></g><g
       transform="translate(377.8923,169.6749)"
       id="g552"><path
         id="path554"
         style="fill:none;stroke:#918f90;stroke-width:0.505;stroke-linecap:round;stroke-linejoin:round;stroke-miterlimit:1.5;stroke-dasharray:none;stroke-opacity:1"
         d="M 0,0 0,143.737" /></g><g
       transform="translate(388.5649,169.6749)"
       id="g556"><path
         id="path558"
         style="fill:none;stroke:#918f90;stroke-width:0.505;stroke-linecap:round;stroke-linejoin:round;stroke-miterlimit:1.5;stroke-dasharray:none;stroke-opacity:1"
         d="M 0,0 0,143.737" /></g><g
       transform="translate(399.2426,169.6749)"
       id="g560"><path
         id="path562"
         style="fill:none;stroke:#918f90;stroke-width:0.505;stroke-linecap:round;stroke-linejoin:round;stroke-miterlimit:1.5;stroke-dasharray:none;stroke-opacity:1"
         d="M 0,0 0,143.737" /></g><g
       transform="translate(409.9153,169.6749)"
       id="g564"><path
         id="path566"
         style="fill:none;stroke:#918f90;stroke-width:0.505;stroke-linecap:round;stroke-linejoin:round;stroke-miterlimit:1.5;stroke-dasharray:none;stroke-opacity:1"
         d="M 0,0 0,143.737" /></g><g
       transform="translate(68.3337,212.7962)"
       id="g568"><path
         id="path570"
         style="fill:none;stroke:#918f90;stroke-width:0.505;stroke-linecap:round;stroke-linejoin:round;stroke-miterlimit:1.5;stroke-dasharray:none;stroke-opacity:1"
         d="M 0,0 352.259,0" /></g><g
       transform="translate(68.3337,227.17)"
       id="g572"><path
         id="path574"
         style="fill:none;stroke:#918f90;stroke-width:0.505;stroke-linecap:round;stroke-linejoin:round;stroke-miterlimit:1.5;stroke-dasharray:none;stroke-opacity:1"
         d="M 0,0 352.259,0" /></g><g
       transform="translate(68.3337,241.5437)"
       id="g576"><path
         id="path578"
         style="fill:none;stroke:#918f90;stroke-width:0.505;stroke-linecap:round;stroke-linejoin:round;stroke-miterlimit:1.5;stroke-dasharray:none;stroke-opacity:1"
         d="M 0,0 352.259,0" /></g><g
       transform="translate(68.3337,255.9175)"
       id="g580"><path
         id="path582"
         style="fill:none;stroke:#918f90;stroke-width:0.505;stroke-linecap:round;stroke-linejoin:round;stroke-miterlimit:1.5;stroke-dasharray:none;stroke-opacity:1"
         d="M 0,0 352.259,0" /></g><g
       transform="translate(68.3337,270.2912)"
       id="g584"><path
         id="path586"
         style="fill:none;stroke:#918f90;stroke-width:0.505;stroke-linecap:round;stroke-linejoin:round;stroke-miterlimit:1.5;stroke-dasharray:none;stroke-opacity:1"
         d="M 0,0 352.259,0" /></g><g
       transform="translate(68.3337,284.6649)"
       id="g588"><path
         id="path590"
         style="fill:none;stroke:#918f90;stroke-width:0.505;stroke-linecap:round;stroke-linejoin:round;stroke-miterlimit:1.5;stroke-dasharray:none;stroke-opacity:1"
         d="M 0,0 352.259,0" /></g><g
       transform="translate(68.3337,299.0387)"
       id="g592"><path
         id="path594"
         style="fill:none;stroke:#918f90;stroke-width:0.505;stroke-linecap:round;stroke-linejoin:round;stroke-miterlimit:1.5;stroke-dasharray:none;stroke-opacity:1"
         d="M 0,0 352.259,0" /></g><g
       transform="translate(68.3337,184.0487)"
       id="g596"><path
         id="path598"
         style="fill:none;stroke:#918f90;stroke-width:0.505;stroke-linecap:round;stroke-linejoin:round;stroke-miterlimit:1.5;stroke-dasharray:none;stroke-opacity:1"
         d="M 0,0 352.259,0" /></g><g
       transform="translate(68.3337,198.4224)"
       id="g600"><path
         id="path602"
         style="fill:none;stroke:#918f90;stroke-width:0.505;stroke-linecap:round;stroke-linejoin:round;stroke-miterlimit:1.5;stroke-dasharray:none;stroke-opacity:1"
         d="M 0,0 352.259,0" /></g><g
       transform="translate(79.0066,163.7352)"
       id="g604"><path
         id="path606"
         style="fill:none;stroke:#918f90;stroke-width:0.505;stroke-linecap:round;stroke-linejoin:round;stroke-miterlimit:1.5;stroke-dasharray:none;stroke-opacity:1"
         d="M 0,0 0,5.94" /></g><g
       transform="translate(89.6794,163.7352)"
       id="g608"><path
         id="path610"
         style="fill:none;stroke:#918f90;stroke-width:0.505;stroke-linecap:round;stroke-linejoin:round;stroke-miterlimit:1.5;stroke-dasharray:none;stroke-opacity:1"
         d="M 0,0 0,5.94" /></g><g
       transform="translate(100.3569,163.7352)"
       id="g612"><path
         id="path614"
         style="fill:none;stroke:#918f90;stroke-width:0.505;stroke-linecap:round;stroke-linejoin:round;stroke-miterlimit:1.5;stroke-dasharray:none;stroke-opacity:1"
         d="M 0,0 0,5.94" /></g><g
       transform="translate(111.0297,163.7352)"
       id="g616"><path
         id="path618"
         style="fill:none;stroke:#918f90;stroke-width:0.505;stroke-linecap:round;stroke-linejoin:round;stroke-miterlimit:1.5;stroke-dasharray:none;stroke-opacity:1"
         d="M 0,0 0,5.94" /></g><g
       transform="translate(121.7025,163.7352)"
       id="g620"><path
         id="path622"
         style="fill:none;stroke:#918f90;stroke-width:0.505;stroke-linecap:round;stroke-linejoin:round;stroke-miterlimit:1.5;stroke-dasharray:none;stroke-opacity:1"
         d="M 0,0 0,5.94" /></g><g
       transform="translate(132.3801,163.7352)"
       id="g624"><path
         id="path626"
         style="fill:none;stroke:#918f90;stroke-width:0.505;stroke-linecap:round;stroke-linejoin:round;stroke-miterlimit:1.5;stroke-dasharray:none;stroke-opacity:1"
         d="M 0,0 0,5.94" /></g><g
       transform="translate(143.0528,163.7352)"
       id="g628"><path
         id="path630"
         style="fill:none;stroke:#918f90;stroke-width:0.505;stroke-linecap:round;stroke-linejoin:round;stroke-miterlimit:1.5;stroke-dasharray:none;stroke-opacity:1"
         d="M 0,0 0,5.94" /></g><g
       transform="translate(153.7256,163.7352)"
       id="g632"><path
         id="path634"
         style="fill:none;stroke:#918f90;stroke-width:0.505;stroke-linecap:round;stroke-linejoin:round;stroke-miterlimit:1.5;stroke-dasharray:none;stroke-opacity:1"
         d="M 0,0 0,5.94" /></g><g
       transform="translate(164.4032,163.7352)"
       id="g636"><path
         id="path638"
         style="fill:none;stroke:#918f90;stroke-width:0.505;stroke-linecap:round;stroke-linejoin:round;stroke-miterlimit:1.5;stroke-dasharray:none;stroke-opacity:1"
         d="M 0,0 0,5.94" /></g><g
       transform="translate(175.076,163.7352)"
       id="g640"><path
         id="path642"
         style="fill:none;stroke:#918f90;stroke-width:0.505;stroke-linecap:round;stroke-linejoin:round;stroke-miterlimit:1.5;stroke-dasharray:none;stroke-opacity:1"
         d="M 0,0 0,5.94" /></g><g
       transform="translate(185.7534,163.7352)"
       id="g644"><path
         id="path646"
         style="fill:none;stroke:#918f90;stroke-width:0.505;stroke-linecap:round;stroke-linejoin:round;stroke-miterlimit:1.5;stroke-dasharray:none;stroke-opacity:1"
         d="M 0,0 0,5.94" /></g><g
       transform="translate(196.4263,163.7352)"
       id="g648"><path
         id="path650"
         style="fill:none;stroke:#918f90;stroke-width:0.505;stroke-linecap:round;stroke-linejoin:round;stroke-miterlimit:1.5;stroke-dasharray:none;stroke-opacity:1"
         d="M 0,0 0,5.94" /></g><g
       transform="translate(207.099,163.7352)"
       id="g652"><path
         id="path654"
         style="fill:none;stroke:#918f90;stroke-width:0.505;stroke-linecap:round;stroke-linejoin:round;stroke-miterlimit:1.5;stroke-dasharray:none;stroke-opacity:1"
         d="M 0,0 0,5.94" /></g><g
       transform="translate(217.7765,163.7352)"
       id="g656"><path
         id="path658"
         style="fill:none;stroke:#918f90;stroke-width:0.505;stroke-linecap:round;stroke-linejoin:round;stroke-miterlimit:1.5;stroke-dasharray:none;stroke-opacity:1"
         d="M 0,0 0,5.94" /></g><g
       transform="translate(228.4493,163.7352)"
       id="g660"><path
         id="path662"
         style="fill:none;stroke:#918f90;stroke-width:0.505;stroke-linecap:round;stroke-linejoin:round;stroke-miterlimit:1.5;stroke-dasharray:none;stroke-opacity:1"
         d="M 0,0 0,5.94" /></g><g
       transform="translate(239.1222,163.7352)"
       id="g664"><path
         id="path666"
         style="fill:none;stroke:#918f90;stroke-width:0.505;stroke-linecap:round;stroke-linejoin:round;stroke-miterlimit:1.5;stroke-dasharray:none;stroke-opacity:1"
         d="M 0,0 0,5.94" /></g><g
       transform="translate(249.7996,163.7352)"
       id="g668"><path
         id="path670"
         style="fill:none;stroke:#918f90;stroke-width:0.505;stroke-linecap:round;stroke-linejoin:round;stroke-miterlimit:1.5;stroke-dasharray:none;stroke-opacity:1"
         d="M 0,0 0,5.94" /></g><g
       transform="translate(260.4725,163.7352)"
       id="g672"><path
         id="path674"
         style="fill:none;stroke:#918f90;stroke-width:0.505;stroke-linecap:round;stroke-linejoin:round;stroke-miterlimit:1.5;stroke-dasharray:none;stroke-opacity:1"
         d="M 0,0 0,5.94" /></g><g
       transform="translate(271.1453,163.7352)"
       id="g676"><path
         id="path678"
         style="fill:none;stroke:#918f90;stroke-width:0.505;stroke-linecap:round;stroke-linejoin:round;stroke-miterlimit:1.5;stroke-dasharray:none;stroke-opacity:1"
         d="M 0,0 0,5.94" /></g><g
       transform="translate(281.8229,163.7352)"
       id="g680"><path
         id="path682"
         style="fill:none;stroke:#918f90;stroke-width:0.505;stroke-linecap:round;stroke-linejoin:round;stroke-miterlimit:1.5;stroke-dasharray:none;stroke-opacity:1"
         d="M 0,0 0,5.94" /></g><g
       transform="translate(292.4957,163.7352)"
       id="g684"><path
         id="path686"
         style="fill:none;stroke:#918f90;stroke-width:0.505;stroke-linecap:round;stroke-linejoin:round;stroke-miterlimit:1.5;stroke-dasharray:none;stroke-opacity:1"
         d="M 0,0 0,5.94" /></g><g
       transform="translate(303.1731,163.7352)"
       id="g688"><path
         id="path690"
         style="fill:none;stroke:#918f90;stroke-width:0.505;stroke-linecap:round;stroke-linejoin:round;stroke-miterlimit:1.5;stroke-dasharray:none;stroke-opacity:1"
         d="M 0,0 0,5.94" /></g><g
       transform="translate(313.8459,163.7352)"
       id="g692"><path
         id="path694"
         style="fill:none;stroke:#918f90;stroke-width:0.505;stroke-linecap:round;stroke-linejoin:round;stroke-miterlimit:1.5;stroke-dasharray:none;stroke-opacity:1"
         d="M 0,0 0,5.94" /></g><g
       transform="translate(324.5187,163.7352)"
       id="g696"><path
         id="path698"
         style="fill:none;stroke:#918f90;stroke-width:0.505;stroke-linecap:round;stroke-linejoin:round;stroke-miterlimit:1.5;stroke-dasharray:none;stroke-opacity:1"
         d="M 0,0 0,5.94" /></g><g
       transform="translate(335.1962,163.7352)"
       id="g700"><path
         id="path702"
         style="fill:none;stroke:#918f90;stroke-width:0.505;stroke-linecap:round;stroke-linejoin:round;stroke-miterlimit:1.5;stroke-dasharray:none;stroke-opacity:1"
         d="M 0,0 0,5.94" /></g><g
       transform="translate(345.869,163.7352)"
       id="g704"><path
         id="path706"
         style="fill:none;stroke:#918f90;stroke-width:0.505;stroke-linecap:round;stroke-linejoin:round;stroke-miterlimit:1.5;stroke-dasharray:none;stroke-opacity:1"
         d="M 0,0 0,5.94" /></g><g
       transform="translate(356.5419,163.7352)"
       id="g708"><path
         id="path710"
         style="fill:none;stroke:#918f90;stroke-width:0.505;stroke-linecap:round;stroke-linejoin:round;stroke-miterlimit:1.5;stroke-dasharray:none;stroke-opacity:1"
         d="M 0,0 0,5.94" /></g><g
       transform="translate(367.2194,163.7352)"
       id="g712"><path
         id="path714"
         style="fill:none;stroke:#918f90;stroke-width:0.505;stroke-linecap:round;stroke-linejoin:round;stroke-miterlimit:1.5;stroke-dasharray:none;stroke-opacity:1"
         d="M 0,0 0,5.94" /></g><g
       transform="translate(377.8923,163.7352)"
       id="g716"><path
         id="path718"
         style="fill:none;stroke:#918f90;stroke-width:0.505;stroke-linecap:round;stroke-linejoin:round;stroke-miterlimit:1.5;stroke-dasharray:none;stroke-opacity:1"
         d="M 0,0 0,5.94" /></g><g
       transform="translate(388.5649,163.7352)"
       id="g720"><path
         id="path722"
         style="fill:none;stroke:#918f90;stroke-width:0.505;stroke-linecap:round;stroke-linejoin:round;stroke-miterlimit:1.5;stroke-dasharray:none;stroke-opacity:1"
         d="M 0,0 0,5.94" /></g><g
       transform="translate(399.2426,163.7352)"
       id="g724"><path
         id="path726"
         style="fill:none;stroke:#918f90;stroke-width:0.505;stroke-linecap:round;stroke-linejoin:round;stroke-miterlimit:1.5;stroke-dasharray:none;stroke-opacity:1"
         d="M 0,0 0,5.94" /></g><g
       transform="translate(409.9153,163.7352)"
       id="g728"><path
         id="path730"
         style="fill:none;stroke:#918f90;stroke-width:0.505;stroke-linecap:round;stroke-linejoin:round;stroke-miterlimit:1.5;stroke-dasharray:none;stroke-opacity:1"
         d="M 0,0 0,5.94" /></g><g
       transform="translate(420.5928,163.7352)"
       id="g732"><path
         id="path734"
         style="fill:none;stroke:#918f90;stroke-width:0.505;stroke-linecap:round;stroke-linejoin:round;stroke-miterlimit:1.5;stroke-dasharray:none;stroke-opacity:1"
         d="M 0,0 0,5.94" /></g><g
       transform="translate(67.1264,169.6749)"
       id="g736"><path
         id="path738"
         style="fill:none;stroke:#918f90;stroke-width:0.505;stroke-linecap:round;stroke-linejoin:round;stroke-miterlimit:1.5;stroke-dasharray:none;stroke-opacity:1"
         d="M 0,0 1.207,0" /></g><g
       transform="translate(61.0897,169.6749)"
       id="g740"><path
         id="path742"
         style="fill:none;stroke:#918f90;stroke-width:0.505;stroke-linecap:round;stroke-linejoin:round;stroke-miterlimit:1.5;stroke-dasharray:none;stroke-opacity:1"
         d="M 0,0 7.244,0" /></g><g
       transform="translate(68.3337,163.7352)"
       id="g744"><path
         id="path746"
         style="fill:none;stroke:#918f90;stroke-width:0.505;stroke-linecap:round;stroke-linejoin:round;stroke-miterlimit:1.5;stroke-dasharray:none;stroke-opacity:1"
         d="M 0,0 0,5.94" /></g><g
       transform="translate(67.1264,198.4224)"
       id="g748"><path
         id="path750"
         style="fill:none;stroke:#918f90;stroke-width:0.505;stroke-linecap:round;stroke-linejoin:round;stroke-miterlimit:1.5;stroke-dasharray:none;stroke-opacity:1"
         d="M 0,0 1.207,0" /></g><g
       transform="translate(67.1264,212.7962)"
       id="g752"><path
         id="path754"
         style="fill:none;stroke:#918f90;stroke-width:0.505;stroke-linecap:round;stroke-linejoin:round;stroke-miterlimit:1.5;stroke-dasharray:none;stroke-opacity:1"
         d="M 0,0 1.207,0" /></g><g
       transform="translate(67.1264,227.17)"
       id="g756"><path
         id="path758"
         style="fill:none;stroke:#918f90;stroke-width:0.505;stroke-linecap:round;stroke-linejoin:round;stroke-miterlimit:1.5;stroke-dasharray:none;stroke-opacity:1"
         d="M 0,0 1.207,0" /></g><g
       transform="translate(67.1264,241.5437)"
       id="g760"><path
         id="path762"
         style="fill:none;stroke:#918f90;stroke-width:0.505;stroke-linecap:round;stroke-linejoin:round;stroke-miterlimit:1.5;stroke-dasharray:none;stroke-opacity:1"
         d="M 0,0 1.207,0" /></g><g
       transform="translate(67.1264,255.9175)"
       id="g764"><path
         id="path766"
         style="fill:none;stroke:#918f90;stroke-width:0.505;stroke-linecap:round;stroke-linejoin:round;stroke-miterlimit:1.5;stroke-dasharray:none;stroke-opacity:1"
         d="M 0,0 1.207,0" /></g><g
       transform="translate(67.1264,270.2912)"
       id="g768"><path
         id="path770"
         style="fill:none;stroke:#918f90;stroke-width:0.505;stroke-linecap:round;stroke-linejoin:round;stroke-miterlimit:1.5;stroke-dasharray:none;stroke-opacity:1"
         d="M 0,0 1.207,0" /></g><g
       transform="translate(67.1264,284.6649)"
       id="g772"><path
         id="path774"
         style="fill:none;stroke:#918f90;stroke-width:0.505;stroke-linecap:round;stroke-linejoin:round;stroke-miterlimit:1.5;stroke-dasharray:none;stroke-opacity:1"
         d="M 0,0 1.207,0" /></g><g
       transform="translate(67.1264,299.0387)"
       id="g776"><path
         id="path778"
         style="fill:none;stroke:#918f90;stroke-width:0.505;stroke-linecap:round;stroke-linejoin:round;stroke-miterlimit:1.5;stroke-dasharray:none;stroke-opacity:1"
         d="M 0,0 1.207,0" /></g><g
       transform="translate(67.1264,313.4124)"
       id="g780"><path
         id="path782"
         style="fill:none;stroke:#918f90;stroke-width:0.505;stroke-linecap:round;stroke-linejoin:round;stroke-miterlimit:1.5;stroke-dasharray:none;stroke-opacity:1"
         d="M 0,0 1.207,0" /></g><g
       transform="translate(61.0897,198.4224)"
       id="g784"><path
         id="path786"
         style="fill:none;stroke:#918f90;stroke-width:0.505;stroke-linecap:round;stroke-linejoin:round;stroke-miterlimit:1.5;stroke-dasharray:none;stroke-opacity:1"
         d="M 0,0 7.244,0" /></g><g
       transform="translate(61.0897,212.7962)"
       id="g788"><path
         id="path790"
         style="fill:none;stroke:#918f90;stroke-width:0.505;stroke-linecap:round;stroke-linejoin:round;stroke-miterlimit:1.5;stroke-dasharray:none;stroke-opacity:1"
         d="M 0,0 7.244,0" /></g><g
       transform="translate(61.0897,227.17)"
       id="g792"><path
         id="path794"
         style="fill:none;stroke:#918f90;stroke-width:0.505;stroke-linecap:round;stroke-linejoin:round;stroke-miterlimit:1.5;stroke-dasharray:none;stroke-opacity:1"
         d="M 0,0 7.244,0" /></g><g
       transform="translate(61.0897,241.5437)"
       id="g796"><path
         id="path798"
         style="fill:none;stroke:#918f90;stroke-width:0.505;stroke-linecap:round;stroke-linejoin:round;stroke-miterlimit:1.5;stroke-dasharray:none;stroke-opacity:1"
         d="M 0,0 7.244,0" /></g><g
       transform="translate(61.0897,255.9175)"
       id="g800"><path
         id="path802"
         style="fill:none;stroke:#918f90;stroke-width:0.505;stroke-linecap:round;stroke-linejoin:round;stroke-miterlimit:1.5;stroke-dasharray:none;stroke-opacity:1"
         d="M 0,0 7.244,0" /></g><g
       transform="translate(61.0897,270.2912)"
       id="g804"><path
         id="path806"
         style="fill:none;stroke:#918f90;stroke-width:0.505;stroke-linecap:round;stroke-linejoin:round;stroke-miterlimit:1.5;stroke-dasharray:none;stroke-opacity:1"
         d="M 0,0 7.244,0" /></g><g
       transform="translate(61.0897,284.6649)"
       id="g808"><path
         id="path810"
         style="fill:none;stroke:#918f90;stroke-width:0.505;stroke-linecap:round;stroke-linejoin:round;stroke-miterlimit:1.5;stroke-dasharray:none;stroke-opacity:1"
         d="M 0,0 7.244,0" /></g><g
       transform="translate(61.0897,299.0387)"
       id="g812"><path
         id="path814"
         style="fill:none;stroke:#918f90;stroke-width:0.505;stroke-linecap:round;stroke-linejoin:round;stroke-miterlimit:1.5;stroke-dasharray:none;stroke-opacity:1"
         d="M 0,0 7.244,0" /></g><g
       transform="translate(61.0897,313.4124)"
       id="g816"><path
         id="path818"
         style="fill:none;stroke:#918f90;stroke-width:0.505;stroke-linecap:round;stroke-linejoin:round;stroke-miterlimit:1.5;stroke-dasharray:none;stroke-opacity:1"
         d="M 0,0 7.244,0" /></g><g
       transform="translate(61.0897,184.0487)"
       id="g820"><path
         id="path822"
         style="fill:none;stroke:#918f90;stroke-width:0.505;stroke-linecap:round;stroke-linejoin:round;stroke-miterlimit:1.5;stroke-dasharray:none;stroke-opacity:1"
         d="M 0,0 7.244,0" /></g><g
       transform="translate(67.1264,184.0487)"
       id="g824"><path
         id="path826"
         style="fill:none;stroke:#918f90;stroke-width:0.505;stroke-linecap:round;stroke-linejoin:round;stroke-miterlimit:1.5;stroke-dasharray:none;stroke-opacity:1"
         d="M 0,0 1.207,0" /></g><g
       transform="translate(68.3337,169.6749)"
       id="g828"><path
         id="path830"
         style="fill:none;stroke:#231f20;stroke-width:1.00999999;stroke-linecap:round;stroke-linejoin:round;stroke-miterlimit:1.5;stroke-dasharray:none;stroke-opacity:1"
         d="M 0,0 352.259,0" /></g><g
       transform="translate(68.3337,169.6749)"
       id="g832"><path
         id="path834"
         style="fill:none;stroke:#231f20;stroke-width:1.00999999;stroke-linecap:round;stroke-linejoin:round;stroke-miterlimit:1.5;stroke-dasharray:none;stroke-opacity:1"
         d="M 0,0 0,143.737" /></g><g
       transform="translate(68.3337,313.4124)"
       id="g836"><path
         id="path838"
         style="fill:none;stroke:#231f20;stroke-width:1.00999999;stroke-linecap:round;stroke-linejoin:round;stroke-miterlimit:1.5;stroke-dasharray:none;stroke-opacity:1"
         d="M 0,0 352.259,0" /></g><g
       transform="translate(420.5928,169.6749)"
       id="g840"><path
         id="path842"
         style="fill:none;stroke:#231f20;stroke-width:1.00999999;stroke-linecap:round;stroke-linejoin:round;stroke-miterlimit:1.5;stroke-dasharray:none;stroke-opacity:1"
         d="M 0,0 0,143.737" /></g><g
       transform="translate(419.2581,171.1134)"
       id="g844"><path
         id="path846"
         style="fill:none;stroke:#231f20;stroke-width:1.00999999;stroke-linecap:round;stroke-linejoin:round;stroke-miterlimit:1.5;stroke-dasharray:none;stroke-opacity:1"
         d="m 0,0 -2.669,4.312 -2.67,7.189 -2.669,1.434 -2.67,1.438 -2.669,0 -2.665,0 -2.669,1.44 -2.669,1.438 -2.67,1.434 -2.669,4.313 -2.67,0 -2.669,1.438 -2.665,1.438 -2.669,1.435 -2.669,1.439 -2.67,0 -2.669,1.438 -2.67,0 -2.664,2.873 -2.669,7.189 -2.67,1.435 -2.669,7.189 -2.67,14.373 -2.669,4.312 -2.665,8.623 -2.669,4.312 -2.669,5.751 -2.67,8.623 -2.669,14.374 -2.67,8.627 -2.664,5.747 -2.67,1.438 -2.669,1.438 -2.669,1.436 -2.67,-5.747 -2.669,0 -2.67,-2.877 -2.664,2.877 -2.669,-8.628 -2.67,-2.873 -2.669,-1.438 -2.67,-2.874 -2.669,0 -2.665,-4.312 -2.669,-2.876 -2.669,0 -2.67,-1.435 -2.669,-1.438 -2.67,2.873 -2.664,5.75 -2.67,0 -2.669,2.877 -2.669,0 -2.67,0 -2.669,1.435 -2.67,0 -2.664,1.438 -2.669,4.313 -2.67,-1.44 -2.669,0 -2.67,2.878 -2.669,0 -2.665,-1.438 -2.669,0 -2.669,1.438 -2.67,0 -2.669,-1.438 -2.67,-1.44 -2.664,-1.434 -2.67,0 -2.669,0 -2.669,-1.439 -2.67,-2.873 -2.669,-1.439 -2.665,0 -2.669,0 -2.67,-2.872 -2.669,0 -2.669,-2.878 -2.67,1.438 -2.669,1.44 -2.665,0 -2.669,1.434 -2.669,0 -2.67,1.438 -2.669,-2.872 -2.67,-1.44 -2.664,1.44 -2.67,0 -2.669,0 -2.669,0 -2.67,-2.878 -2.669,-1.438 -2.665,-7.185 -2.669,-2.874 -2.67,-2.876 -2.669,-4.312 -2.669,-4.311 -2.67,-4.313 -2.669,-1.438 -2.665,-5.75 -2.669,-1.436 -2.669,0 -2.67,-7.188 -2.669,-7.185 -2.67,0 -2.664,-1.438 -2.67,-4.312 -2.669,-8.623 -2.669,-4.313 -2.67,-2.876 -2.669,-1.439 -2.665,-2.873 -2.669,0 -2.67,-4.312 -2.669,-1.439 -2.669,-1.434 -2.67,0 -2.664,0 -2.67,-2.878 -2.669,-1.438 -2.67,0 -2.669,0 -2.669,0 -2.67,-1.434 -2.664,-1.439 -2.67,0 -2.669,0 -2.669,-1.439 -2.67,-1.434 -2.669,0" /></g></g></svg>