<?xml version="1.0" encoding="UTF-8" standalone="no"?>
<svg
   xmlns:dc="http://purl.org/dc/elements/1.1/"
   xmlns:cc="http://creativecommons.org/ns#"
   xmlns:rdf="http://www.w3.org/1999/02/22-rdf-syntax-ns#"
   xmlns:svg="http://www.w3.org/2000/svg"
   xmlns="http://www.w3.org/2000/svg"
   viewBox="0 0 473.69019 241.50754"
   height="241.50754"
   width="473.69019"
   xml:space="preserve"
   version="1.1"
   id="svg2"><metadata
     id="metadata8"><rdf:RDF><cc:Work
         rdf:about=""><dc:format>image/svg+xml</dc:format><dc:type
           rdf:resource="http://purl.org/dc/dcmitype/StillImage" /><dc:title></dc:title></cc:Work></rdf:RDF></metadata><defs
     id="defs6"><clipPath
       id="clipPath20"
       clipPathUnits="userSpaceOnUse"><path
         id="path22"
         d="m 231.879,650.469 8.691,0 0,8.731 -8.691,0 0,-8.731 z" /></clipPath></defs><g
     transform="matrix(1.25,0,0,-1.25,-78.571129,722.33646)"
     id="g10"><text
       id="text144"
       style="font-variant:normal;font-weight:500;font-stretch:normal;font-size:9.30220032px;font-family:Delicious;-inkscape-font-specification:Delicious-Roman;writing-mode:lr-tb;fill:#110f0d;fill-opacity:1;fill-rule:nonzero;stroke:none"
       transform="matrix(1,0,0,-1,70.8754,402.1227)"><tspan
         id="tspan146"
         y="0"
         x="0 4.1859899 8.3719797 12.55797 74.333878 78.519867 82.705864 86.891853 150.1282 154.31419 158.50018 162.68617 223.63419 227.82018 232.00616 236.19215 305.04706 309.23303 313.41904 317.60501">18691889190919291949</tspan><tspan
         id="tspan148"
         y="-15.785833"
         x="-4.4092426">0</tspan><tspan
         id="tspan150"
         y="-52.083019"
         x="-4.4092426">5</tspan><tspan
         id="tspan152"
         y="-88.380203"
         x="-8.595233 -4.4092426">10</tspan><tspan
         id="tspan154"
         y="-124.67739"
         x="-8.595233 -4.4092426">15</tspan><tspan
         id="tspan156"
         y="-160.97456"
         x="-8.595233 -4.4092426">20</tspan><tspan
         id="tspan158"
         y="-169.29074"
         x="7.5440841 12.632387 17.013723 21.348549 24.195023 29.022863 31.813524 34.780926 39.115749 41.962223 46.343559 49.13422 53.934155 58.315491 61.282894 64.073555 68.259544 70.659508 74.845505 79.031494 83.217484 86.008141 89.915062 92.761536 97.589378 102.3521 106.73344 111.56129 114.40776">Death rate per 1,000 students</tspan></text>
<text
       id="text170"
       style="font-variant:normal;font-weight:500;font-stretch:normal;font-size:8.26860046px;font-family:Delicious;-inkscape-font-specification:Delicious-Roman;writing-mode:lr-tb;fill:#231f20;fill-opacity:1;fill-rule:nonzero;stroke:none"
       transform="matrix(1,0,0,-1,73.3261,386.2011)"><tspan
         id="tspan172"
         y="0"
         x="0 3.5885725 7.6236491 11.915052 14.511393 17.918056 21.812567 23.945866 26.426445 30.560745 34.595821 38.068634 41.963146 46.254547 48.78474 53.076145 56.92931 58.880699 61.014 63.494579 67.182373 70.77095 73.30114 77.154305 79.684502 81.652428 85.125237 87.655426 89.623352 93.030022 96.883186 98.834579 101.31516 105.53214 109.82355 113.67671 115.62811 119.38205 122.85486 124.82278 128.29559 130.77618 134.81125 137.17607 139.65665 144.17958 148.07408 151.92726 154.45744 158.74886 162.22166 164.35497 168.04276 170.52333 174.2442 177.96507 180.92523 184.6461 188.36697">Source: Rosenthal, “Statistical Analysis of Deaths,” 97–99.</tspan></text>
<g
       transform="translate(87.8986,415.8896)"
       id="g174"><path
         id="path176"
         style="fill:none;stroke:#918f90;stroke-width:0.51700002;stroke-linecap:round;stroke-linejoin:round;stroke-miterlimit:1.5;stroke-dasharray:none;stroke-opacity:1"
         d="M 0,0 0,149.347" /></g><g
       transform="translate(95.3374,415.8896)"
       id="g178"><path
         id="path180"
         style="fill:none;stroke:#918f90;stroke-width:0.51700002;stroke-linecap:round;stroke-linejoin:round;stroke-miterlimit:1.5;stroke-dasharray:none;stroke-opacity:1"
         d="M 0,0 0,149.347" /></g><g
       transform="translate(102.7763,415.8896)"
       id="g182"><path
         id="path184"
         style="fill:none;stroke:#918f90;stroke-width:0.51700002;stroke-linecap:round;stroke-linejoin:round;stroke-miterlimit:1.5;stroke-dasharray:none;stroke-opacity:1"
         d="M 0,0 0,149.347" /></g><g
       transform="translate(110.2152,415.8896)"
       id="g186"><path
         id="path188"
         style="fill:none;stroke:#918f90;stroke-width:0.51700002;stroke-linecap:round;stroke-linejoin:round;stroke-miterlimit:1.5;stroke-dasharray:none;stroke-opacity:1"
         d="M 0,0 0,149.347" /></g><g
       transform="translate(117.6541,415.8896)"
       id="g190"><path
         id="path192"
         style="fill:none;stroke:#918f90;stroke-width:0.51700002;stroke-linecap:round;stroke-linejoin:round;stroke-miterlimit:1.5;stroke-dasharray:none;stroke-opacity:1"
         d="M 0,0 0,149.347" /></g><g
       transform="translate(125.0929,415.8896)"
       id="g194"><path
         id="path196"
         style="fill:none;stroke:#918f90;stroke-width:0.51700002;stroke-linecap:round;stroke-linejoin:round;stroke-miterlimit:1.5;stroke-dasharray:none;stroke-opacity:1"
         d="M 0,0 0,149.347" /></g><g
       transform="translate(132.5367,415.8896)"
       id="g198"><path
         id="path200"
         style="fill:none;stroke:#918f90;stroke-width:0.51700002;stroke-linecap:round;stroke-linejoin:round;stroke-miterlimit:1.5;stroke-dasharray:none;stroke-opacity:1"
         d="M 0,0 0,149.347" /></g><g
       transform="translate(139.9755,415.8896)"
       id="g202"><path
         id="path204"
         style="fill:none;stroke:#918f90;stroke-width:0.51700002;stroke-linecap:round;stroke-linejoin:round;stroke-miterlimit:1.5;stroke-dasharray:none;stroke-opacity:1"
         d="M 0,0 0,149.347" /></g><g
       transform="translate(147.4144,415.8896)"
       id="g206"><path
         id="path208"
         style="fill:none;stroke:#918f90;stroke-width:0.51700002;stroke-linecap:round;stroke-linejoin:round;stroke-miterlimit:1.5;stroke-dasharray:none;stroke-opacity:1"
         d="M 0,0 0,149.347" /></g><g
       transform="translate(154.8532,415.8896)"
       id="g210"><path
         id="path212"
         style="fill:none;stroke:#918f90;stroke-width:0.51700002;stroke-linecap:round;stroke-linejoin:round;stroke-miterlimit:1.5;stroke-dasharray:none;stroke-opacity:1"
         d="M 0,0 0,149.347" /></g><g
       transform="translate(162.2922,415.8896)"
       id="g214"><path
         id="path216"
         style="fill:none;stroke:#918f90;stroke-width:0.51700002;stroke-linecap:round;stroke-linejoin:round;stroke-miterlimit:1.5;stroke-dasharray:none;stroke-opacity:1"
         d="M 0,0 0,149.347" /></g><g
       transform="translate(169.7309,415.8896)"
       id="g218"><path
         id="path220"
         style="fill:none;stroke:#918f90;stroke-width:0.51700002;stroke-linecap:round;stroke-linejoin:round;stroke-miterlimit:1.5;stroke-dasharray:none;stroke-opacity:1"
         d="M 0,0 0,149.347" /></g><g
       transform="translate(177.1748,415.8896)"
       id="g222"><path
         id="path224"
         style="fill:none;stroke:#918f90;stroke-width:0.51700002;stroke-linecap:round;stroke-linejoin:round;stroke-miterlimit:1.5;stroke-dasharray:none;stroke-opacity:1"
         d="M 0,0 0,149.347" /></g><g
       transform="translate(184.6137,415.8896)"
       id="g226"><path
         id="path228"
         style="fill:none;stroke:#918f90;stroke-width:0.51700002;stroke-linecap:round;stroke-linejoin:round;stroke-miterlimit:1.5;stroke-dasharray:none;stroke-opacity:1"
         d="M 0,0 0,149.347" /></g><g
       transform="translate(192.0525,415.8896)"
       id="g230"><path
         id="path232"
         style="fill:none;stroke:#918f90;stroke-width:0.51700002;stroke-linecap:round;stroke-linejoin:round;stroke-miterlimit:1.5;stroke-dasharray:none;stroke-opacity:1"
         d="M 0,0 0,149.347" /></g><g
       transform="translate(199.4913,415.8896)"
       id="g234"><path
         id="path236"
         style="fill:none;stroke:#918f90;stroke-width:0.51700002;stroke-linecap:round;stroke-linejoin:round;stroke-miterlimit:1.5;stroke-dasharray:none;stroke-opacity:1"
         d="M 0,0 0,149.347" /></g><g
       transform="translate(206.9302,415.8896)"
       id="g238"><path
         id="path240"
         style="fill:none;stroke:#918f90;stroke-width:0.51700002;stroke-linecap:round;stroke-linejoin:round;stroke-miterlimit:1.5;stroke-dasharray:none;stroke-opacity:1"
         d="M 0,0 0,149.347" /></g><g
       transform="translate(214.3691,415.8896)"
       id="g242"><path
         id="path244"
         style="fill:none;stroke:#918f90;stroke-width:0.51700002;stroke-linecap:round;stroke-linejoin:round;stroke-miterlimit:1.5;stroke-dasharray:none;stroke-opacity:1"
         d="M 0,0 0,149.347" /></g><g
       transform="translate(221.8128,415.8896)"
       id="g246"><path
         id="path248"
         style="fill:none;stroke:#918f90;stroke-width:0.51700002;stroke-linecap:round;stroke-linejoin:round;stroke-miterlimit:1.5;stroke-dasharray:none;stroke-opacity:1"
         d="M 0,0 0,149.347" /></g><g
       transform="translate(229.2517,415.8896)"
       id="g250"><path
         id="path252"
         style="fill:none;stroke:#918f90;stroke-width:0.51700002;stroke-linecap:round;stroke-linejoin:round;stroke-miterlimit:1.5;stroke-dasharray:none;stroke-opacity:1"
         d="M 0,0 0,149.347" /></g><g
       transform="translate(236.6905,415.8896)"
       id="g254"><path
         id="path256"
         style="fill:none;stroke:#918f90;stroke-width:0.51700002;stroke-linecap:round;stroke-linejoin:round;stroke-miterlimit:1.5;stroke-dasharray:none;stroke-opacity:1"
         d="M 0,0 0,149.347" /></g><g
       transform="translate(244.1294,415.8896)"
       id="g258"><path
         id="path260"
         style="fill:none;stroke:#918f90;stroke-width:0.51700002;stroke-linecap:round;stroke-linejoin:round;stroke-miterlimit:1.5;stroke-dasharray:none;stroke-opacity:1"
         d="M 0,0 0,149.347" /></g><g
       transform="translate(251.5683,415.8896)"
       id="g262"><path
         id="path264"
         style="fill:none;stroke:#918f90;stroke-width:0.51700002;stroke-linecap:round;stroke-linejoin:round;stroke-miterlimit:1.5;stroke-dasharray:none;stroke-opacity:1"
         d="M 0,0 0,149.347" /></g><g
       transform="translate(259.0071,415.8896)"
       id="g266"><path
         id="path268"
         style="fill:none;stroke:#918f90;stroke-width:0.51700002;stroke-linecap:round;stroke-linejoin:round;stroke-miterlimit:1.5;stroke-dasharray:none;stroke-opacity:1"
         d="M 0,0 0,149.347" /></g><g
       transform="translate(266.4509,415.8896)"
       id="g270"><path
         id="path272"
         style="fill:none;stroke:#918f90;stroke-width:0.51700002;stroke-linecap:round;stroke-linejoin:round;stroke-miterlimit:1.5;stroke-dasharray:none;stroke-opacity:1"
         d="M 0,0 0,149.347" /></g><g
       transform="translate(273.8898,415.8896)"
       id="g274"><path
         id="path276"
         style="fill:none;stroke:#918f90;stroke-width:0.51700002;stroke-linecap:round;stroke-linejoin:round;stroke-miterlimit:1.5;stroke-dasharray:none;stroke-opacity:1"
         d="M 0,0 0,149.347" /></g><g
       transform="translate(281.3287,415.8896)"
       id="g278"><path
         id="path280"
         style="fill:none;stroke:#918f90;stroke-width:0.51700002;stroke-linecap:round;stroke-linejoin:round;stroke-miterlimit:1.5;stroke-dasharray:none;stroke-opacity:1"
         d="M 0,0 0,149.347" /></g><g
       transform="translate(288.7674,415.8896)"
       id="g282"><path
         id="path284"
         style="fill:none;stroke:#918f90;stroke-width:0.51700002;stroke-linecap:round;stroke-linejoin:round;stroke-miterlimit:1.5;stroke-dasharray:none;stroke-opacity:1"
         d="M 0,0 0,149.347" /></g><g
       transform="translate(296.2064,415.8896)"
       id="g286"><path
         id="path288"
         style="fill:none;stroke:#918f90;stroke-width:0.51700002;stroke-linecap:round;stroke-linejoin:round;stroke-miterlimit:1.5;stroke-dasharray:none;stroke-opacity:1"
         d="M 0,0 0,149.347" /></g><g
       transform="translate(303.6451,415.8896)"
       id="g290"><path
         id="path292"
         style="fill:none;stroke:#918f90;stroke-width:0.51700002;stroke-linecap:round;stroke-linejoin:round;stroke-miterlimit:1.5;stroke-dasharray:none;stroke-opacity:1"
         d="M 0,0 0,149.347" /></g><g
       transform="translate(311.0889,415.8896)"
       id="g294"><path
         id="path296"
         style="fill:none;stroke:#918f90;stroke-width:0.51700002;stroke-linecap:round;stroke-linejoin:round;stroke-miterlimit:1.5;stroke-dasharray:none;stroke-opacity:1"
         d="M 0,0 0,149.347" /></g><g
       transform="translate(318.5278,415.8896)"
       id="g298"><path
         id="path300"
         style="fill:none;stroke:#918f90;stroke-width:0.51700002;stroke-linecap:round;stroke-linejoin:round;stroke-miterlimit:1.5;stroke-dasharray:none;stroke-opacity:1"
         d="M 0,0 0,149.347" /></g><g
       transform="translate(325.9667,415.8896)"
       id="g302"><path
         id="path304"
         style="fill:none;stroke:#918f90;stroke-width:0.51700002;stroke-linecap:round;stroke-linejoin:round;stroke-miterlimit:1.5;stroke-dasharray:none;stroke-opacity:1"
         d="M 0,0 0,149.347" /></g><g
       transform="translate(333.4056,415.8896)"
       id="g306"><path
         id="path308"
         style="fill:none;stroke:#918f90;stroke-width:0.51700002;stroke-linecap:round;stroke-linejoin:round;stroke-miterlimit:1.5;stroke-dasharray:none;stroke-opacity:1"
         d="M 0,0 0,149.347" /></g><g
       transform="translate(340.8444,415.8896)"
       id="g310"><path
         id="path312"
         style="fill:none;stroke:#918f90;stroke-width:0.51700002;stroke-linecap:round;stroke-linejoin:round;stroke-miterlimit:1.5;stroke-dasharray:none;stroke-opacity:1"
         d="M 0,0 0,149.347" /></g><g
       transform="translate(348.2833,415.8896)"
       id="g314"><path
         id="path316"
         style="fill:none;stroke:#918f90;stroke-width:0.51700002;stroke-linecap:round;stroke-linejoin:round;stroke-miterlimit:1.5;stroke-dasharray:none;stroke-opacity:1"
         d="M 0,0 0,149.347" /></g><g
       transform="translate(355.727,415.8896)"
       id="g318"><path
         id="path320"
         style="fill:none;stroke:#918f90;stroke-width:0.51700002;stroke-linecap:round;stroke-linejoin:round;stroke-miterlimit:1.5;stroke-dasharray:none;stroke-opacity:1"
         d="M 0,0 0,149.347" /></g><g
       transform="translate(363.1659,415.8896)"
       id="g322"><path
         id="path324"
         style="fill:none;stroke:#918f90;stroke-width:0.51700002;stroke-linecap:round;stroke-linejoin:round;stroke-miterlimit:1.5;stroke-dasharray:none;stroke-opacity:1"
         d="M 0,0 0,149.347" /></g><g
       transform="translate(370.6048,415.8896)"
       id="g326"><path
         id="path328"
         style="fill:none;stroke:#918f90;stroke-width:0.51700002;stroke-linecap:round;stroke-linejoin:round;stroke-miterlimit:1.5;stroke-dasharray:none;stroke-opacity:1"
         d="M 0,0 0,149.347" /></g><g
       transform="translate(378.0436,415.8896)"
       id="g330"><path
         id="path332"
         style="fill:none;stroke:#918f90;stroke-width:0.51700002;stroke-linecap:round;stroke-linejoin:round;stroke-miterlimit:1.5;stroke-dasharray:none;stroke-opacity:1"
         d="M 0,0 0,149.347" /></g><g
       transform="translate(385.4825,415.8896)"
       id="g334"><path
         id="path336"
         style="fill:none;stroke:#918f90;stroke-width:0.51700002;stroke-linecap:round;stroke-linejoin:round;stroke-miterlimit:1.5;stroke-dasharray:none;stroke-opacity:1"
         d="M 0,0 0,149.347" /></g><g
       transform="translate(392.9214,415.8896)"
       id="g338"><path
         id="path340"
         style="fill:none;stroke:#918f90;stroke-width:0.51700002;stroke-linecap:round;stroke-linejoin:round;stroke-miterlimit:1.5;stroke-dasharray:none;stroke-opacity:1"
         d="M 0,0 0,149.347" /></g><g
       transform="translate(400.3651,415.8896)"
       id="g342"><path
         id="path344"
         style="fill:none;stroke:#918f90;stroke-width:0.51700002;stroke-linecap:round;stroke-linejoin:round;stroke-miterlimit:1.5;stroke-dasharray:none;stroke-opacity:1"
         d="M 0,0 0,149.347" /></g><g
       transform="translate(407.804,415.8896)"
       id="g346"><path
         id="path348"
         style="fill:none;stroke:#918f90;stroke-width:0.51700002;stroke-linecap:round;stroke-linejoin:round;stroke-miterlimit:1.5;stroke-dasharray:none;stroke-opacity:1"
         d="M 0,0 0,149.347" /></g><g
       transform="translate(415.2428,415.8896)"
       id="g350"><path
         id="path352"
         style="fill:none;stroke:#918f90;stroke-width:0.51700002;stroke-linecap:round;stroke-linejoin:round;stroke-miterlimit:1.5;stroke-dasharray:none;stroke-opacity:1"
         d="M 0,0 0,149.347" /></g><g
       transform="translate(422.6816,415.8896)"
       id="g354"><path
         id="path356"
         style="fill:none;stroke:#918f90;stroke-width:0.51700002;stroke-linecap:round;stroke-linejoin:round;stroke-miterlimit:1.5;stroke-dasharray:none;stroke-opacity:1"
         d="M 0,0 0,149.347" /></g><g
       transform="translate(430.1205,415.8896)"
       id="g358"><path
         id="path360"
         style="fill:none;stroke:#918f90;stroke-width:0.51700002;stroke-linecap:round;stroke-linejoin:round;stroke-miterlimit:1.5;stroke-dasharray:none;stroke-opacity:1"
         d="M 0,0 0,149.347" /></g><g
       transform="translate(437.5594,415.8896)"
       id="g362"><path
         id="path364"
         style="fill:none;stroke:#918f90;stroke-width:0.51700002;stroke-linecap:round;stroke-linejoin:round;stroke-miterlimit:1.5;stroke-dasharray:none;stroke-opacity:1"
         d="M 0,0 0,149.347" /></g><g
       transform="translate(80.4597,453.2264)"
       id="g366"><path
         id="path368"
         style="fill:none;stroke:#918f90;stroke-width:0.51700002;stroke-linecap:round;stroke-linejoin:round;stroke-miterlimit:1.5;stroke-dasharray:none;stroke-opacity:1"
         d="M 0,0 360.825,0" /></g><g
       transform="translate(80.4597,490.563)"
       id="g370"><path
         id="path372"
         style="fill:none;stroke:#918f90;stroke-width:0.51700002;stroke-linecap:round;stroke-linejoin:round;stroke-miterlimit:1.5;stroke-dasharray:none;stroke-opacity:1"
         d="M 0,0 360.825,0" /></g><g
       transform="translate(80.4597,527.8998)"
       id="g374"><path
         id="path376"
         style="fill:none;stroke:#918f90;stroke-width:0.51700002;stroke-linecap:round;stroke-linejoin:round;stroke-miterlimit:1.5;stroke-dasharray:none;stroke-opacity:1"
         d="M 0,0 360.825,0" /></g><g
       transform="translate(80.4597,411.7412)"
       id="g378"><path
         id="path380"
         style="fill:none;stroke:#918f90;stroke-width:0.51700002;stroke-linecap:round;stroke-linejoin:round;stroke-miterlimit:1.5;stroke-dasharray:none;stroke-opacity:1"
         d="M 0,0 0,4.149" /></g><g
       transform="translate(87.8986,411.7412)"
       id="g382"><path
         id="path384"
         style="fill:none;stroke:#918f90;stroke-width:0.51700002;stroke-linecap:round;stroke-linejoin:round;stroke-miterlimit:1.5;stroke-dasharray:none;stroke-opacity:1"
         d="M 0,0 0,4.149" /></g><g
       transform="translate(95.3374,411.7412)"
       id="g386"><path
         id="path388"
         style="fill:none;stroke:#918f90;stroke-width:0.51700002;stroke-linecap:round;stroke-linejoin:round;stroke-miterlimit:1.5;stroke-dasharray:none;stroke-opacity:1"
         d="M 0,0 0,4.149" /></g><g
       transform="translate(102.7763,411.7412)"
       id="g390"><path
         id="path392"
         style="fill:none;stroke:#918f90;stroke-width:0.51700002;stroke-linecap:round;stroke-linejoin:round;stroke-miterlimit:1.5;stroke-dasharray:none;stroke-opacity:1"
         d="M 0,0 0,4.149" /></g><g
       transform="translate(110.2152,411.7412)"
       id="g394"><path
         id="path396"
         style="fill:none;stroke:#918f90;stroke-width:0.51700002;stroke-linecap:round;stroke-linejoin:round;stroke-miterlimit:1.5;stroke-dasharray:none;stroke-opacity:1"
         d="M 0,0 0,4.149" /></g><g
       transform="translate(117.6541,411.7412)"
       id="g398"><path
         id="path400"
         style="fill:none;stroke:#918f90;stroke-width:0.51700002;stroke-linecap:round;stroke-linejoin:round;stroke-miterlimit:1.5;stroke-dasharray:none;stroke-opacity:1"
         d="M 0,0 0,4.149" /></g><g
       transform="translate(125.0929,411.7412)"
       id="g402"><path
         id="path404"
         style="fill:none;stroke:#918f90;stroke-width:0.51700002;stroke-linecap:round;stroke-linejoin:round;stroke-miterlimit:1.5;stroke-dasharray:none;stroke-opacity:1"
         d="M 0,0 0,4.149" /></g><g
       transform="translate(132.5367,411.7412)"
       id="g406"><path
         id="path408"
         style="fill:none;stroke:#918f90;stroke-width:0.51700002;stroke-linecap:round;stroke-linejoin:round;stroke-miterlimit:1.5;stroke-dasharray:none;stroke-opacity:1"
         d="M 0,0 0,4.149" /></g><g
       transform="translate(139.9755,411.7412)"
       id="g410"><path
         id="path412"
         style="fill:none;stroke:#918f90;stroke-width:0.51700002;stroke-linecap:round;stroke-linejoin:round;stroke-miterlimit:1.5;stroke-dasharray:none;stroke-opacity:1"
         d="M 0,0 0,4.149" /></g><g
       transform="translate(147.4144,411.7412)"
       id="g414"><path
         id="path416"
         style="fill:none;stroke:#918f90;stroke-width:0.51700002;stroke-linecap:round;stroke-linejoin:round;stroke-miterlimit:1.5;stroke-dasharray:none;stroke-opacity:1"
         d="M 0,0 0,4.149" /></g><g
       transform="translate(154.8532,411.7412)"
       id="g418"><path
         id="path420"
         style="fill:none;stroke:#918f90;stroke-width:0.51700002;stroke-linecap:round;stroke-linejoin:round;stroke-miterlimit:1.5;stroke-dasharray:none;stroke-opacity:1"
         d="M 0,0 0,4.149" /></g><g
       transform="translate(162.2922,411.7412)"
       id="g422"><path
         id="path424"
         style="fill:none;stroke:#918f90;stroke-width:0.51700002;stroke-linecap:round;stroke-linejoin:round;stroke-miterlimit:1.5;stroke-dasharray:none;stroke-opacity:1"
         d="M 0,0 0,4.149" /></g><g
       transform="translate(169.7309,411.7412)"
       id="g426"><path
         id="path428"
         style="fill:none;stroke:#918f90;stroke-width:0.51700002;stroke-linecap:round;stroke-linejoin:round;stroke-miterlimit:1.5;stroke-dasharray:none;stroke-opacity:1"
         d="M 0,0 0,4.149" /></g><g
       transform="translate(177.1748,411.7412)"
       id="g430"><path
         id="path432"
         style="fill:none;stroke:#918f90;stroke-width:0.51700002;stroke-linecap:round;stroke-linejoin:round;stroke-miterlimit:1.5;stroke-dasharray:none;stroke-opacity:1"
         d="M 0,0 0,4.149" /></g><g
       transform="translate(184.6137,411.7412)"
       id="g434"><path
         id="path436"
         style="fill:none;stroke:#918f90;stroke-width:0.51700002;stroke-linecap:round;stroke-linejoin:round;stroke-miterlimit:1.5;stroke-dasharray:none;stroke-opacity:1"
         d="M 0,0 0,4.149" /></g><g
       transform="translate(192.0525,411.7412)"
       id="g438"><path
         id="path440"
         style="fill:none;stroke:#918f90;stroke-width:0.51700002;stroke-linecap:round;stroke-linejoin:round;stroke-miterlimit:1.5;stroke-dasharray:none;stroke-opacity:1"
         d="M 0,0 0,4.149" /></g><g
       transform="translate(199.4913,411.7412)"
       id="g442"><path
         id="path444"
         style="fill:none;stroke:#918f90;stroke-width:0.51700002;stroke-linecap:round;stroke-linejoin:round;stroke-miterlimit:1.5;stroke-dasharray:none;stroke-opacity:1"
         d="M 0,0 0,4.149" /></g><g
       transform="translate(206.9302,411.7412)"
       id="g446"><path
         id="path448"
         style="fill:none;stroke:#918f90;stroke-width:0.51700002;stroke-linecap:round;stroke-linejoin:round;stroke-miterlimit:1.5;stroke-dasharray:none;stroke-opacity:1"
         d="M 0,0 0,4.149" /></g><g
       transform="translate(214.3691,411.7412)"
       id="g450"><path
         id="path452"
         style="fill:none;stroke:#918f90;stroke-width:0.51700002;stroke-linecap:round;stroke-linejoin:round;stroke-miterlimit:1.5;stroke-dasharray:none;stroke-opacity:1"
         d="M 0,0 0,4.149" /></g><g
       transform="translate(221.8128,411.7412)"
       id="g454"><path
         id="path456"
         style="fill:none;stroke:#918f90;stroke-width:0.51700002;stroke-linecap:round;stroke-linejoin:round;stroke-miterlimit:1.5;stroke-dasharray:none;stroke-opacity:1"
         d="M 0,0 0,4.149" /></g><g
       transform="translate(229.2517,411.7412)"
       id="g458"><path
         id="path460"
         style="fill:none;stroke:#918f90;stroke-width:0.51700002;stroke-linecap:round;stroke-linejoin:round;stroke-miterlimit:1.5;stroke-dasharray:none;stroke-opacity:1"
         d="M 0,0 0,4.149" /></g><g
       transform="translate(236.6905,411.7412)"
       id="g462"><path
         id="path464"
         style="fill:none;stroke:#918f90;stroke-width:0.51700002;stroke-linecap:round;stroke-linejoin:round;stroke-miterlimit:1.5;stroke-dasharray:none;stroke-opacity:1"
         d="M 0,0 0,4.149" /></g><g
       transform="translate(244.1294,411.7412)"
       id="g466"><path
         id="path468"
         style="fill:none;stroke:#918f90;stroke-width:0.51700002;stroke-linecap:round;stroke-linejoin:round;stroke-miterlimit:1.5;stroke-dasharray:none;stroke-opacity:1"
         d="M 0,0 0,4.149" /></g><g
       transform="translate(251.5683,411.7412)"
       id="g470"><path
         id="path472"
         style="fill:none;stroke:#918f90;stroke-width:0.51700002;stroke-linecap:round;stroke-linejoin:round;stroke-miterlimit:1.5;stroke-dasharray:none;stroke-opacity:1"
         d="M 0,0 0,4.149" /></g><g
       transform="translate(259.0071,411.7412)"
       id="g474"><path
         id="path476"
         style="fill:none;stroke:#918f90;stroke-width:0.51700002;stroke-linecap:round;stroke-linejoin:round;stroke-miterlimit:1.5;stroke-dasharray:none;stroke-opacity:1"
         d="M 0,0 0,4.149" /></g><g
       transform="translate(266.4509,411.7412)"
       id="g478"><path
         id="path480"
         style="fill:none;stroke:#918f90;stroke-width:0.51700002;stroke-linecap:round;stroke-linejoin:round;stroke-miterlimit:1.5;stroke-dasharray:none;stroke-opacity:1"
         d="M 0,0 0,4.149" /></g><g
       transform="translate(273.8898,411.7412)"
       id="g482"><path
         id="path484"
         style="fill:none;stroke:#918f90;stroke-width:0.51700002;stroke-linecap:round;stroke-linejoin:round;stroke-miterlimit:1.5;stroke-dasharray:none;stroke-opacity:1"
         d="M 0,0 0,4.149" /></g><g
       transform="translate(281.3287,411.7412)"
       id="g486"><path
         id="path488"
         style="fill:none;stroke:#918f90;stroke-width:0.51700002;stroke-linecap:round;stroke-linejoin:round;stroke-miterlimit:1.5;stroke-dasharray:none;stroke-opacity:1"
         d="M 0,0 0,4.149" /></g><g
       transform="translate(288.7674,411.7412)"
       id="g490"><path
         id="path492"
         style="fill:none;stroke:#918f90;stroke-width:0.51700002;stroke-linecap:round;stroke-linejoin:round;stroke-miterlimit:1.5;stroke-dasharray:none;stroke-opacity:1"
         d="M 0,0 0,4.149" /></g><g
       transform="translate(296.2064,411.7412)"
       id="g494"><path
         id="path496"
         style="fill:none;stroke:#918f90;stroke-width:0.51700002;stroke-linecap:round;stroke-linejoin:round;stroke-miterlimit:1.5;stroke-dasharray:none;stroke-opacity:1"
         d="M 0,0 0,4.149" /></g><g
       transform="translate(303.6451,411.7412)"
       id="g498"><path
         id="path500"
         style="fill:none;stroke:#918f90;stroke-width:0.51700002;stroke-linecap:round;stroke-linejoin:round;stroke-miterlimit:1.5;stroke-dasharray:none;stroke-opacity:1"
         d="M 0,0 0,4.149" /></g><g
       transform="translate(311.0889,411.7412)"
       id="g502"><path
         id="path504"
         style="fill:none;stroke:#918f90;stroke-width:0.51700002;stroke-linecap:round;stroke-linejoin:round;stroke-miterlimit:1.5;stroke-dasharray:none;stroke-opacity:1"
         d="M 0,0 0,4.149" /></g><g
       transform="translate(318.5278,411.7412)"
       id="g506"><path
         id="path508"
         style="fill:none;stroke:#918f90;stroke-width:0.51700002;stroke-linecap:round;stroke-linejoin:round;stroke-miterlimit:1.5;stroke-dasharray:none;stroke-opacity:1"
         d="M 0,0 0,4.149" /></g><g
       transform="translate(325.9667,411.7412)"
       id="g510"><path
         id="path512"
         style="fill:none;stroke:#918f90;stroke-width:0.51700002;stroke-linecap:round;stroke-linejoin:round;stroke-miterlimit:1.5;stroke-dasharray:none;stroke-opacity:1"
         d="M 0,0 0,4.149" /></g><g
       transform="translate(333.4056,411.7412)"
       id="g514"><path
         id="path516"
         style="fill:none;stroke:#918f90;stroke-width:0.51700002;stroke-linecap:round;stroke-linejoin:round;stroke-miterlimit:1.5;stroke-dasharray:none;stroke-opacity:1"
         d="M 0,0 0,4.149" /></g><g
       transform="translate(340.8444,411.7412)"
       id="g518"><path
         id="path520"
         style="fill:none;stroke:#918f90;stroke-width:0.51700002;stroke-linecap:round;stroke-linejoin:round;stroke-miterlimit:1.5;stroke-dasharray:none;stroke-opacity:1"
         d="M 0,0 0,4.149" /></g><g
       transform="translate(348.2833,411.7412)"
       id="g522"><path
         id="path524"
         style="fill:none;stroke:#918f90;stroke-width:0.51700002;stroke-linecap:round;stroke-linejoin:round;stroke-miterlimit:1.5;stroke-dasharray:none;stroke-opacity:1"
         d="M 0,0 0,4.149" /></g><g
       transform="translate(355.727,411.7412)"
       id="g526"><path
         id="path528"
         style="fill:none;stroke:#918f90;stroke-width:0.51700002;stroke-linecap:round;stroke-linejoin:round;stroke-miterlimit:1.5;stroke-dasharray:none;stroke-opacity:1"
         d="M 0,0 0,4.149" /></g><g
       transform="translate(363.1659,411.7412)"
       id="g530"><path
         id="path532"
         style="fill:none;stroke:#918f90;stroke-width:0.51700002;stroke-linecap:round;stroke-linejoin:round;stroke-miterlimit:1.5;stroke-dasharray:none;stroke-opacity:1"
         d="M 0,0 0,4.149" /></g><g
       transform="translate(370.6048,411.7412)"
       id="g534"><path
         id="path536"
         style="fill:none;stroke:#918f90;stroke-width:0.51700002;stroke-linecap:round;stroke-linejoin:round;stroke-miterlimit:1.5;stroke-dasharray:none;stroke-opacity:1"
         d="M 0,0 0,4.149" /></g><g
       transform="translate(378.0436,411.7412)"
       id="g538"><path
         id="path540"
         style="fill:none;stroke:#918f90;stroke-width:0.51700002;stroke-linecap:round;stroke-linejoin:round;stroke-miterlimit:1.5;stroke-dasharray:none;stroke-opacity:1"
         d="M 0,0 0,4.149" /></g><g
       transform="translate(385.4825,411.539)"
       id="g542"><path
         id="path544"
         style="fill:none;stroke:#918f90;stroke-width:0.51700002;stroke-linecap:round;stroke-linejoin:round;stroke-miterlimit:1.5;stroke-dasharray:none;stroke-opacity:1"
         d="M 0,0 0,4.149" /></g><g
       transform="translate(392.9214,411.7412)"
       id="g546"><path
         id="path548"
         style="fill:none;stroke:#918f90;stroke-width:0.51700002;stroke-linecap:round;stroke-linejoin:round;stroke-miterlimit:1.5;stroke-dasharray:none;stroke-opacity:1"
         d="M 0,0 0,4.149" /></g><g
       transform="translate(400.3651,411.7412)"
       id="g550"><path
         id="path552"
         style="fill:none;stroke:#918f90;stroke-width:0.51700002;stroke-linecap:round;stroke-linejoin:round;stroke-miterlimit:1.5;stroke-dasharray:none;stroke-opacity:1"
         d="M 0,0 0,4.149" /></g><g
       transform="translate(407.804,411.7412)"
       id="g554"><path
         id="path556"
         style="fill:none;stroke:#918f90;stroke-width:0.51700002;stroke-linecap:round;stroke-linejoin:round;stroke-miterlimit:1.5;stroke-dasharray:none;stroke-opacity:1"
         d="M 0,0 0,4.149" /></g><g
       transform="translate(415.2428,411.7412)"
       id="g558"><path
         id="path560"
         style="fill:none;stroke:#918f90;stroke-width:0.51700002;stroke-linecap:round;stroke-linejoin:round;stroke-miterlimit:1.5;stroke-dasharray:none;stroke-opacity:1"
         d="M 0,0 0,4.149" /></g><g
       transform="translate(422.6816,411.7412)"
       id="g562"><path
         id="path564"
         style="fill:none;stroke:#918f90;stroke-width:0.51700002;stroke-linecap:round;stroke-linejoin:round;stroke-miterlimit:1.5;stroke-dasharray:none;stroke-opacity:1"
         d="M 0,0 0,4.149" /></g><g
       transform="translate(430.1205,411.7412)"
       id="g566"><path
         id="path568"
         style="fill:none;stroke:#918f90;stroke-width:0.51700002;stroke-linecap:round;stroke-linejoin:round;stroke-miterlimit:1.5;stroke-dasharray:none;stroke-opacity:1"
         d="M 0,0 0,4.149" /></g><g
       transform="translate(437.5594,411.7412)"
       id="g570"><path
         id="path572"
         style="fill:none;stroke:#918f90;stroke-width:0.51700002;stroke-linecap:round;stroke-linejoin:round;stroke-miterlimit:1.5;stroke-dasharray:none;stroke-opacity:1"
         d="M 0,0 0,4.149" /></g><g
       transform="translate(72.9426,415.8896)"
       id="g574"><path
         id="path576"
         style="fill:none;stroke:#918f90;stroke-width:0.51700002;stroke-linecap:round;stroke-linejoin:round;stroke-miterlimit:1.5;stroke-dasharray:none;stroke-opacity:1"
         d="M 0,0 7.517,0" /></g><g
       transform="translate(72.9426,453.2264)"
       id="g578"><path
         id="path580"
         style="fill:none;stroke:#918f90;stroke-width:0.51700002;stroke-linecap:round;stroke-linejoin:round;stroke-miterlimit:1.5;stroke-dasharray:none;stroke-opacity:1"
         d="M 0,0 7.517,0" /></g><g
       transform="translate(72.9426,490.563)"
       id="g582"><path
         id="path584"
         style="fill:none;stroke:#918f90;stroke-width:0.51700002;stroke-linecap:round;stroke-linejoin:round;stroke-miterlimit:1.5;stroke-dasharray:none;stroke-opacity:1"
         d="M 0,0 7.517,0" /></g><g
       transform="translate(72.9426,527.8998)"
       id="g586"><path
         id="path588"
         style="fill:none;stroke:#918f90;stroke-width:0.51700002;stroke-linecap:round;stroke-linejoin:round;stroke-miterlimit:1.5;stroke-dasharray:none;stroke-opacity:1"
         d="M 0,0 7.517,0" /></g><g
       transform="translate(72.9426,565.2365)"
       id="g590"><path
         id="path592"
         style="fill:none;stroke:#918f90;stroke-width:0.51700002;stroke-linecap:round;stroke-linejoin:round;stroke-miterlimit:1.5;stroke-dasharray:none;stroke-opacity:1"
         d="M 0,0 7.517,0" /></g><g
       transform="translate(439.4191,415.8896)"
       id="g594"><path
         id="path596"
         style="fill:none;stroke:#231f20;stroke-width:1.03400004;stroke-linecap:round;stroke-linejoin:round;stroke-miterlimit:1.5;stroke-dasharray:none;stroke-opacity:1"
         d="m 0,0 -3.72,0 -3.719,0 -3.72,0 -3.718,0 -3.72,0 -3.72,0 -3.719,0.748 -3.72,-0.075 -3.719,-0.673 -3.719,0 -3.72,0 -3.724,0.673 -3.72,0.821 -3.719,0 -3.72,-1.494 -3.719,2.391 -3.719,1.569 -3.719,2.687 -3.72,7.767 -3.72,-8.664 -3.719,0.972 -3.72,10.38 -3.718,-6.123 -3.725,1.717 -3.719,0.895 -3.72,-2.837 -3.72,-0.971 -3.719,6.422 -3.72,4.481 -3.718,-3.884 -3.72,-11.649 -3.719,3.511 -3.72,-0.748 -3.72,-0.673 -3.719,13.743 -3.725,-12.77 -3.718,-1.867 -3.72,2.464 -3.719,-3.211 -3.72,6.198 -3.72,7.989 -3.719,-11.873 -3.719,1.867 -3.719,-6.796 -3.72,3.287 -3.72,1.642 -3.719,-1.493 -3.72,7.916 -3.724,-7.765 -3.72,-3.363 -3.718,0.151 -3.72,16.8 -3.719,22.104 -3.72,5.526 -3.72,-5.002 -3.719,13.591 -3.719,-12.846 -3.719,24.867 -3.72,-16.651 -3.72,-13.666 -3.724,3.063 -3.72,24.491 -3.719,55.556 -3.719,-93.341 -3.719,30.469 -3.72,-26.509 -3.72,54.51 -3.719,-69.746 -3.72,43.835 -3.718,-25.016 -3.72,-16.653 -3.719,-7.916 -3.725,97.152 -3.719,-99.019 -3.72,-4.032 -3.72,40.848 -3.718,-45.777 -3.72,59.068 -3.719,-7.244 -3.72,-17.027 -3.72,-17.547 -3.719,-17.25 -3.719,0 -3.719,0 -3.725,0 -3.719,0 -3.72,0 -3.719,0 -3.72,0 -3.719,0 -3.719,0 -3.72,0 -3.719,0 -3.72,0 -3.72,0 -3.718,0" /></g><g
       transform="translate(80.4597,415.8896)"
       id="g598"><path
         id="path600"
         style="fill:none;stroke:#110f0d;stroke-width:1.03400004;stroke-linecap:butt;stroke-linejoin:miter;stroke-miterlimit:10;stroke-dasharray:none;stroke-opacity:1"
         d="M 0,0 0,149.347" /></g><g
       transform="translate(80.4597,565.2365)"
       id="g602"><path
         id="path604"
         style="fill:none;stroke:#110f0d;stroke-width:1.03400004;stroke-linecap:round;stroke-linejoin:round;stroke-miterlimit:1.5;stroke-dasharray:none;stroke-opacity:1"
         d="M 0,0 360.825,0" /></g><g
       transform="translate(441.2838,415.8896)"
       id="g606"><path
         id="path608"
         style="fill:none;stroke:#110f0d;stroke-width:1.03400004;stroke-linecap:round;stroke-linejoin:round;stroke-miterlimit:1.5;stroke-dasharray:none;stroke-opacity:1"
         d="M 0,0 0,149.347" /></g><g
       transform="translate(80.4597,415.8896)"
       id="g610"><path
         id="path612"
         style="fill:none;stroke:#110f0d;stroke-width:1.03400004;stroke-linecap:butt;stroke-linejoin:miter;stroke-miterlimit:10;stroke-dasharray:none;stroke-opacity:1"
         d="M 0,0 360.825,0" /></g></g></svg>